<?xml version="1.0" encoding="UTF-8"?>
<!DOCTYPE svg PUBLIC "-//W3C//DTD SVG 1.1//EN" "http://www.w3.org/Graphics/SVG/1.1/DTD/svg11.dtd">
<svg xmlns="http://www.w3.org/2000/svg" version="1.1" width="512px" height="512px" style="shape-rendering:geometricPrecision; text-rendering:geometricPrecision; image-rendering:optimizeQuality; fill-rule:evenodd; clip-rule:evenodd" xmlns:xlink="http://www.w3.org/1999/xlink">
<g><path style="opacity:0.987" fill="#ffd253" d="M 132.5,-0.5 C 178.167,-0.5 223.833,-0.5 269.5,-0.5C 260.833,8.5 252.167,17.5 243.5,26.5C 214.116,26.0322 184.783,26.5322 155.5,28C 144.403,33.6925 140.57,42.5258 144,54.5C 145.611,57.9376 147.777,60.9376 150.5,63.5C 132.167,81.5 113.833,99.5 95.5,117.5C 95.0338,89.4494 95.5338,61.4494 97,33.5C 102.519,15.4793 114.352,4.14594 132.5,-0.5 Z"/></g>
<g><path style="opacity:0.989" fill="#ffcc43" d="M 269.5,-0.5 C 288.833,-0.5 308.167,-0.5 327.5,-0.5C 318.833,8.5 310.167,17.5 301.5,26.5C 282.167,26.5 262.833,26.5 243.5,26.5C 252.167,17.5 260.833,8.5 269.5,-0.5 Z"/></g>
<g><path style="opacity:0.986" fill="#ffc736" d="M 327.5,-0.5 C 344.5,-0.5 361.5,-0.5 378.5,-0.5C 334.5,43.8333 290.5,88.1667 246.5,132.5C 238.833,132.5 231.167,132.5 223.5,132.5C 244.833,110.833 266.167,89.1667 287.5,67.5C 296.613,68.8479 304.947,67.0145 312.5,62C 321.833,52 321.833,42 312.5,32C 309.01,29.588 305.343,27.7547 301.5,26.5C 310.167,17.5 318.833,8.5 327.5,-0.5 Z"/></g>
<g><path style="opacity:0.996" fill="#ffc32a" d="M 378.5,-0.5 C 378.833,-0.5 379.167,-0.5 379.5,-0.5C 385.064,1.30925 390.397,3.80925 395.5,7C 398.331,8.66571 400.664,10.8324 402.5,13.5C 363.167,53.1667 323.833,92.8333 284.5,132.5C 281.5,132.5 278.5,132.5 275.5,132.5C 265.833,132.5 256.167,132.5 246.5,132.5C 290.5,88.1667 334.5,43.8333 378.5,-0.5 Z"/></g>
<g><path style="opacity:0.995" fill="#ffbf21" d="M 402.5,13.5 C 409.995,20.4899 414.328,29.1566 415.5,39.5C 384.167,70.1667 353.167,101.167 322.5,132.5C 309.833,132.5 297.167,132.5 284.5,132.5C 323.833,92.8333 363.167,53.1667 402.5,13.5 Z"/></g>
<g><path style="opacity:0.993" fill="#feba12" d="M 415.5,39.5 C 416.455,55.4649 416.788,71.4649 416.5,87.5C 413.134,87.8311 410.134,88.9978 407.5,91C 404.5,91.3333 401.5,91.6667 398.5,92C 397.833,92.6667 397.167,93.3333 396.5,94C 393.833,94.3333 391.167,94.6667 388.5,95C 387.833,95.6667 387.167,96.3333 386.5,97C 383.833,97.3333 381.167,97.6667 378.5,98C 377.833,98.6667 377.167,99.3333 376.5,100C 371.966,100.269 367.633,101.102 363.5,102.5C 363.5,112.5 363.5,122.5 363.5,132.5C 349.833,132.5 336.167,132.5 322.5,132.5C 353.167,101.167 384.167,70.1667 415.5,39.5 Z"/></g>
<g><path style="opacity:0.994" fill="#ffd04d" d="M 150.5,63.5 C 153.261,65.2116 156.261,66.3782 159.5,67C 173.496,67.4999 187.496,67.6666 201.5,67.5C 180.167,89.1667 158.833,110.833 137.5,132.5C 123.5,132.5 109.5,132.5 95.5,132.5C 95.5,127.5 95.5,122.5 95.5,117.5C 113.833,99.5 132.167,81.5 150.5,63.5 Z"/></g>
<g><path style="opacity:0.994" fill="#ffcd47" d="M 201.5,67.5 C 211.5,67.5 221.5,67.5 231.5,67.5C 210.167,89.1667 188.833,110.833 167.5,132.5C 157.5,132.5 147.5,132.5 137.5,132.5C 158.833,110.833 180.167,89.1667 201.5,67.5 Z"/></g>
<g><path style="opacity:0.994" fill="#ffca3d" d="M 231.5,67.5 C 250.167,67.5 268.833,67.5 287.5,67.5C 266.167,89.1667 244.833,110.833 223.5,132.5C 212.167,132.5 200.833,132.5 189.5,132.5C 182.167,132.5 174.833,132.5 167.5,132.5C 188.833,110.833 210.167,89.1667 231.5,67.5 Z"/></g>
<g><path style="opacity:0.978" fill="#f9ac06" d="M 416.5,87.5 C 416.5,102.5 416.5,117.5 416.5,132.5C 398.833,132.5 381.167,132.5 363.5,132.5C 363.5,122.5 363.5,112.5 363.5,102.5C 367.633,101.102 371.966,100.269 376.5,100C 377.167,99.3333 377.833,98.6667 378.5,98C 381.167,97.6667 383.833,97.3333 386.5,97C 387.167,96.3333 387.833,95.6667 388.5,95C 391.167,94.6667 393.833,94.3333 396.5,94C 397.167,93.3333 397.833,92.6667 398.5,92C 401.5,91.6667 404.5,91.3333 407.5,91C 410.134,88.9978 413.134,87.8311 416.5,87.5 Z"/></g>
<g><path style="opacity:0.997" fill="#fed358" d="M 95.5,132.5 C 109.5,132.5 123.5,132.5 137.5,132.5C 147.5,132.5 157.5,132.5 167.5,132.5C 174.833,132.5 182.167,132.5 189.5,132.5C 189.5,180.167 189.5,227.833 189.5,275.5C 157.54,300.126 125.874,325.126 94.5,350.5C 79.5,350.5 64.5,350.5 49.5,350.5C 49.5,357.167 49.5,363.833 49.5,370.5C 55.8333,370.5 62.1667,370.5 68.5,370.5C 50.8576,384.47 33.191,398.47 15.5,412.5C 15.3333,359.166 15.5,305.832 16,252.5C 42.2752,212.263 68.7752,172.263 95.5,132.5 Z"/></g>
<g><path style="opacity:1" fill="#fe703b" d="M 189.5,132.5 C 200.833,132.5 212.167,132.5 223.5,132.5C 231.167,132.5 238.833,132.5 246.5,132.5C 256.167,132.5 265.833,132.5 275.5,132.5C 275.5,132.833 275.5,133.167 275.5,133.5C 275.5,173.833 275.5,214.167 275.5,254.5C 275.831,278.339 275.498,302.006 274.5,325.5C 274.5,311.5 274.5,297.5 274.5,283.5C 274.5,275.167 274.5,266.833 274.5,258.5C 274.5,249.833 274.5,241.167 274.5,232.5C 274.5,223.833 274.5,215.167 274.5,206.5C 274.5,197.833 274.5,189.167 274.5,180.5C 274.667,165.83 274.5,151.163 274,136.5C 246.036,160.796 218.369,185.462 191,210.5C 190.5,225.163 190.333,239.83 190.5,254.5C 190.5,263.167 190.5,271.833 190.5,280.5C 190.5,289.167 190.5,297.833 190.5,306.5C 190.5,312.833 190.5,319.167 190.5,325.5C 189.503,309.008 189.17,292.342 189.5,275.5C 189.5,227.833 189.5,180.167 189.5,132.5 Z"/></g>
<g><path style="opacity:0.999" fill="#fbca4f" d="M 275.5,133.5 C 275.5,133.167 275.5,132.833 275.5,132.5C 278.5,132.5 281.5,132.5 284.5,132.5C 297.167,132.5 309.833,132.5 322.5,132.5C 336.167,132.5 349.833,132.5 363.5,132.5C 363.918,133.222 364.584,133.722 365.5,134C 364.5,134.333 363.5,134.667 362.5,135C 364.652,139.635 367.319,143.968 370.5,148C 357.224,161.444 343.891,174.611 330.5,187.5C 312.167,169.5 293.833,151.5 275.5,133.5 Z"/></g>
<g><path style="opacity:0.999" fill="#f6bf47" d="M 275.5,133.5 C 293.833,151.5 312.167,169.5 330.5,187.5C 335.009,192.176 339.343,197.009 343.5,202C 341.356,207.416 339.856,212.916 339,218.5C 342.349,214.984 345.849,211.651 349.5,208.5C 349.833,209 350.167,209.5 350.5,210C 349.22,213.152 348.387,216.319 348,219.5C 350.333,217.167 352.667,214.833 355,212.5C 356.093,214.349 357.426,216.016 359,217.5C 370.5,206 382,194.5 393.5,183C 387.688,175.24 382.854,167.073 379,158.5C 382.167,155.333 385.333,152.167 388.5,149C 392.167,148.667 395.833,148.333 399.5,148C 403.682,143.985 407.682,139.818 411.5,135.5C 413.396,134.534 415.396,134.201 417.5,134.5C 424.994,144.816 431.994,155.483 438.5,166.5C 437.542,166.047 436.708,165.381 436,164.5C 432.131,168.034 428.631,171.867 425.5,176C 421.5,176.333 417.5,176.667 413.5,177C 411.209,180.719 407.876,182.385 403.5,182C 401.5,184 399.5,186 397.5,188C 407.576,205.549 418.576,222.382 430.5,238.5C 433.333,244.17 436.666,249.503 440.5,254.5C 440.167,254.5 439.833,254.5 439.5,254.5C 398.167,254.5 356.833,254.5 315.5,254.5C 302.167,254.5 288.833,254.5 275.5,254.5C 275.5,214.167 275.5,173.833 275.5,133.5 Z"/></g>
<g><path style="opacity:1" fill="#ff673d" d="M 274.5,180.5 C 246.5,205.167 218.5,229.833 190.5,254.5C 190.333,239.83 190.5,225.163 191,210.5C 218.369,185.462 246.036,160.796 274,136.5C 274.5,151.163 274.667,165.83 274.5,180.5 Z"/></g>
<g><path style="opacity:1" fill="#f8c44b" d="M 363.5,132.5 C 381.167,132.5 398.833,132.5 416.5,132.5C 416.833,133.167 417.167,133.833 417.5,134.5C 415.396,134.201 413.396,134.534 411.5,135.5C 407.682,139.818 403.682,143.985 399.5,148C 395.833,148.333 392.167,148.667 388.5,149C 385.333,152.167 382.167,155.333 379,158.5C 382.854,167.073 387.688,175.24 393.5,183C 382,194.5 370.5,206 359,217.5C 357.426,216.016 356.093,214.349 355,212.5C 352.667,214.833 350.333,217.167 348,219.5C 348.387,216.319 349.22,213.152 350.5,210C 350.167,209.5 349.833,209 349.5,208.5C 345.849,211.651 342.349,214.984 339,218.5C 339.856,212.916 341.356,207.416 343.5,202C 339.343,197.009 335.009,192.176 330.5,187.5C 343.891,174.611 357.224,161.444 370.5,148C 367.319,143.968 364.652,139.635 362.5,135C 363.5,134.667 364.5,134.333 365.5,134C 364.584,133.722 363.918,133.222 363.5,132.5 Z"/></g>
<g><path style="opacity:1" fill="#ff6042" d="M 274.5,180.5 C 274.5,189.167 274.5,197.833 274.5,206.5C 246.797,231.539 218.797,256.205 190.5,280.5C 190.5,271.833 190.5,263.167 190.5,254.5C 218.5,229.833 246.5,205.167 274.5,180.5 Z"/></g>
<g><path style="opacity:0.998" fill="#f2b441" d="M 438.5,166.5 C 451.243,184.312 463.243,202.646 474.5,221.5C 466.912,222.301 459.245,222.801 451.5,223C 444.797,228.673 437.797,233.84 430.5,238.5C 418.576,222.382 407.576,205.549 397.5,188C 399.5,186 401.5,184 403.5,182C 407.876,182.385 411.209,180.719 413.5,177C 417.5,176.667 421.5,176.333 425.5,176C 428.631,171.867 432.131,168.034 436,164.5C 436.708,165.381 437.542,166.047 438.5,166.5 Z"/></g>
<g><path style="opacity:1" fill="#ff5a46" d="M 274.5,206.5 C 274.5,215.167 274.5,223.833 274.5,232.5C 246.797,257.539 218.797,282.205 190.5,306.5C 190.5,297.833 190.5,289.167 190.5,280.5C 218.797,256.205 246.797,231.539 274.5,206.5 Z"/></g>
<g><path style="opacity:1" fill="#eead3c" d="M 474.5,221.5 C 482.564,231.947 489.898,242.947 496.5,254.5C 477.833,254.5 459.167,254.5 440.5,254.5C 436.666,249.503 433.333,244.17 430.5,238.5C 437.797,233.84 444.797,228.673 451.5,223C 459.245,222.801 466.912,222.301 474.5,221.5 Z"/></g>
<g><path style="opacity:1" fill="#fe544b" d="M 274.5,232.5 C 274.5,241.167 274.5,249.833 274.5,258.5C 247.176,282.492 220.176,306.825 193.5,331.5C 191.461,330.089 190.461,328.089 190.5,325.5C 190.5,319.167 190.5,312.833 190.5,306.5C 218.797,282.205 246.797,257.539 274.5,232.5 Z"/></g>
<g><path style="opacity:1" fill="#fcca4e" d="M 275.5,254.5 C 288.833,254.5 302.167,254.5 315.5,254.5C 311.964,265.106 308.631,275.773 305.5,286.5C 297.277,309.002 289.777,331.669 283,354.5C 285.667,352.5 288.333,350.5 291,348.5C 284.769,368.526 278.102,388.526 271,408.5C 269.296,406.627 267.463,404.96 265.5,403.5C 242.47,381.471 220.137,358.804 198.5,335.5C 204.5,335.5 210.5,335.5 216.5,335.5C 233.837,335.667 251.17,335.5 268.5,335C 272.156,332.851 274.156,329.684 274.5,325.5C 275.498,302.006 275.831,278.339 275.5,254.5 Z"/></g>
<g><path style="opacity:1" fill="#fed153" d="M 315.5,254.5 C 356.833,254.5 398.167,254.5 439.5,254.5C 439.8,259.099 439.467,263.599 438.5,268C 394.356,302.643 350.356,337.476 306.5,372.5C 307.876,365.833 309.876,359 312.5,352C 312.333,351.5 312.167,351 312,350.5C 309.691,351.975 307.524,353.642 305.5,355.5C 305.167,355 304.833,354.5 304.5,354C 306.401,348.129 308.401,342.296 310.5,336.5C 310.167,336.167 309.833,335.833 309.5,335.5C 306.909,337.38 304.409,339.38 302,341.5C 303.628,334.442 305.795,327.442 308.5,320.5C 304.182,322.553 300.015,325.553 296,329.5C 300.594,314.715 305.428,299.881 310.5,285C 310.333,284.5 310.167,284 310,283.5C 308.385,284.386 306.885,285.386 305.5,286.5C 308.631,275.773 311.964,265.106 315.5,254.5 Z"/></g>
<g><path style="opacity:1" fill="#fed04e" d="M 439.5,254.5 C 439.833,254.5 440.167,254.5 440.5,254.5C 440.5,270.167 440.5,285.833 440.5,301.5C 440.5,320.5 440.5,339.5 440.5,358.5C 440.5,362.167 440.5,365.833 440.5,369.5C 439.673,374.985 439.173,380.652 439,386.5C 398.788,419.047 358.288,451.214 317.5,483C 293.339,484.423 269.339,486.423 245.5,489C 230.167,489.667 214.833,490.333 199.5,491C 175.607,493.664 151.607,495.664 127.5,497C 126.944,497.383 126.611,497.883 126.5,498.5C 90.3342,498.967 54.3342,499.633 18.5,500.5C 17.0337,499.653 16.2004,498.32 16,496.5C 15.5034,494.19 15.3367,491.857 15.5,489.5C 42.1689,489.185 68.8356,488.685 95.5,488C 119.557,486.303 143.557,484.637 167.5,483C 199.5,457.667 231.5,432.333 263.5,407C 264.823,406.184 265.489,405.017 265.5,403.5C 267.463,404.96 269.296,406.627 271,408.5C 278.102,388.526 284.769,368.526 291,348.5C 288.333,350.5 285.667,352.5 283,354.5C 289.777,331.669 297.277,309.002 305.5,286.5C 306.885,285.386 308.385,284.386 310,283.5C 310.167,284 310.333,284.5 310.5,285C 305.428,299.881 300.594,314.715 296,329.5C 300.015,325.553 304.182,322.553 308.5,320.5C 305.795,327.442 303.628,334.442 302,341.5C 304.409,339.38 306.909,337.38 309.5,335.5C 309.833,335.833 310.167,336.167 310.5,336.5C 308.401,342.296 306.401,348.129 304.5,354C 304.833,354.5 305.167,355 305.5,355.5C 307.524,353.642 309.691,351.975 312,350.5C 312.167,351 312.333,351.5 312.5,352C 309.876,359 307.876,365.833 306.5,372.5C 350.356,337.476 394.356,302.643 438.5,268C 439.467,263.599 439.8,259.099 439.5,254.5 Z"/></g>
<g><path style="opacity:1" fill="#fe4e4f" d="M 274.5,258.5 C 274.5,266.833 274.5,275.167 274.5,283.5C 254.843,300.491 235.51,317.825 216.5,335.5C 210.5,335.5 204.5,335.5 198.5,335.5C 196.251,334.92 194.585,333.587 193.5,331.5C 220.176,306.825 247.176,282.492 274.5,258.5 Z"/></g>
<g><path style="opacity:1" fill="#f9c345" d="M 440.5,254.5 C 459.167,254.5 477.833,254.5 496.5,254.5C 496.5,270.5 496.5,286.5 496.5,302.5C 495.513,297.695 495.179,292.695 495.5,287.5C 491.818,287.335 488.152,287.501 484.5,288C 480.833,291 477.167,294 473.5,297C 468.561,296.681 464.227,298.014 460.5,301C 453.842,301.5 447.175,301.666 440.5,301.5C 440.5,285.833 440.5,270.167 440.5,254.5 Z"/></g>
<g><path style="opacity:1" fill="#fed255" d="M 189.5,275.5 C 189.17,292.342 189.503,309.008 190.5,325.5C 190.461,328.089 191.461,330.089 193.5,331.5C 194.585,333.587 196.251,334.92 198.5,335.5C 220.137,358.804 242.47,381.471 265.5,403.5C 265.489,405.017 264.823,406.184 263.5,407C 231.5,432.333 199.5,457.667 167.5,483C 143.557,484.637 119.557,486.303 95.5,488C 68.8356,488.685 42.1689,489.185 15.5,489.5C 15.5,463.833 15.5,438.167 15.5,412.5C 33.191,398.47 50.8576,384.47 68.5,370.5C 100.338,370.832 132.004,370.498 163.5,369.5C 163.5,363.5 163.5,357.5 163.5,351.5C 140.673,350.502 117.673,350.169 94.5,350.5C 125.874,325.126 157.54,300.126 189.5,275.5 Z"/></g>
<g><path style="opacity:0.991" fill="#f7be41" d="M 496.5,302.5 C 496.5,322.833 496.5,343.167 496.5,363.5C 495.513,358.695 495.179,353.695 495.5,348.5C 486.161,348.334 476.827,348.5 467.5,349C 463.833,352 460.167,355 456.5,358C 451.177,358.499 445.844,358.666 440.5,358.5C 440.5,339.5 440.5,320.5 440.5,301.5C 447.175,301.666 453.842,301.5 460.5,301C 464.227,298.014 468.561,296.681 473.5,297C 477.167,294 480.833,291 484.5,288C 488.152,287.501 491.818,287.335 495.5,287.5C 495.179,292.695 495.513,297.695 496.5,302.5 Z"/></g>
<g><path style="opacity:1" fill="#ff4754" d="M 274.5,283.5 C 274.5,297.5 274.5,311.5 274.5,325.5C 274.156,329.684 272.156,332.851 268.5,335C 251.17,335.5 233.837,335.667 216.5,335.5C 235.51,317.825 254.843,300.491 274.5,283.5 Z"/></g>
<g><path style="opacity:1" fill="#3e3d57" d="M 94.5,350.5 C 117.673,350.169 140.673,350.502 163.5,351.5C 145.167,351.5 126.833,351.5 108.5,351.5C 108.5,357.5 108.5,363.5 108.5,369.5C 126.833,369.5 145.167,369.5 163.5,369.5C 132.004,370.498 100.338,370.832 68.5,370.5C 62.1667,370.5 55.8333,370.5 49.5,370.5C 49.5,363.833 49.5,357.167 49.5,350.5C 64.5,350.5 79.5,350.5 94.5,350.5 Z"/></g>
<g><path style="opacity:1" fill="#333653" d="M 163.5,351.5 C 163.5,357.5 163.5,363.5 163.5,369.5C 145.167,369.5 126.833,369.5 108.5,369.5C 108.5,363.5 108.5,357.5 108.5,351.5C 126.833,351.5 145.167,351.5 163.5,351.5 Z"/></g>
<g><path style="opacity:0.984" fill="#f4b83d" d="M 496.5,363.5 C 496.5,387.5 496.5,411.5 496.5,435.5C 495.504,422.344 495.171,409.01 495.5,395.5C 492.482,395.335 489.482,395.502 486.5,396C 483.167,398.667 479.833,401.333 476.5,404C 465.5,404.333 454.5,404.667 443.5,405C 442.473,405.513 441.473,406.013 440.5,406.5C 440.5,394.167 440.5,381.833 440.5,369.5C 440.5,365.833 440.5,362.167 440.5,358.5C 445.844,358.666 451.177,358.499 456.5,358C 460.167,355 463.833,352 467.5,349C 476.827,348.5 486.161,348.334 495.5,348.5C 495.179,353.695 495.513,358.695 496.5,363.5 Z"/></g>
<g><path style="opacity:1" fill="#fecc47" d="M 440.5,369.5 C 440.5,381.833 440.5,394.167 440.5,406.5C 440.5,432.833 440.5,459.167 440.5,485.5C 439.596,486.209 439.263,487.209 439.5,488.5C 437.25,488.181 435.25,488.681 433.5,490C 382.567,492.459 331.567,494.292 280.5,495.5C 229.077,495.597 177.744,496.597 126.5,498.5C 126.611,497.883 126.944,497.383 127.5,497C 151.607,495.664 175.607,493.664 199.5,491C 214.833,490.333 230.167,489.667 245.5,489C 269.339,486.423 293.339,484.423 317.5,483C 358.288,451.214 398.788,419.047 439,386.5C 439.173,380.652 439.673,374.985 440.5,369.5 Z"/></g>
<g><path style="opacity:1" fill="#3e3d57" d="M 163.5,400.5 C 145.167,400.5 126.833,400.5 108.5,400.5C 108.5,406.5 108.5,412.5 108.5,418.5C 126.833,418.5 145.167,418.5 163.5,418.5C 125.67,419.499 87.6703,419.832 49.5,419.5C 49.5,412.833 49.5,406.167 49.5,399.5C 87.6703,399.168 125.67,399.501 163.5,400.5 Z"/></g>
<g><path style="opacity:1" fill="#333653" d="M 163.5,400.5 C 163.5,406.5 163.5,412.5 163.5,418.5C 145.167,418.5 126.833,418.5 108.5,418.5C 108.5,412.5 108.5,406.5 108.5,400.5C 126.833,400.5 145.167,400.5 163.5,400.5 Z"/></g>
<g><path style="opacity:1" fill="#f1b038" d="M 496.5,435.5 C 496.83,455.34 496.497,475.007 495.5,494.5C 495.813,491.753 495.48,489.086 494.5,486.5C 476.557,487.879 458.557,488.546 440.5,488.5C 440.5,487.5 440.5,486.5 440.5,485.5C 440.5,459.167 440.5,432.833 440.5,406.5C 441.473,406.013 442.473,405.513 443.5,405C 454.5,404.667 465.5,404.333 476.5,404C 479.833,401.333 483.167,398.667 486.5,396C 489.482,395.502 492.482,395.335 495.5,395.5C 495.171,409.01 495.504,422.344 496.5,435.5 Z"/></g>
<g><path style="opacity:1" fill="#434157" d="M 49.5,448.5 C 79.8333,448.5 110.167,448.5 140.5,448.5C 140.5,455.167 140.5,461.833 140.5,468.5C 110.167,468.5 79.8333,468.5 49.5,468.5C 49.5,461.833 49.5,455.167 49.5,448.5 Z"/></g>
<g><path style="opacity:1" fill="#353754" d="M 68.5,449.5 C 92.1667,449.5 115.833,449.5 139.5,449.5C 139.5,455.5 139.5,461.5 139.5,467.5C 115.833,467.5 92.1667,467.5 68.5,467.5C 68.5,461.5 68.5,455.5 68.5,449.5 Z"/></g>
<g><path style="opacity:1" fill="#fac440" d="M 440.5,485.5 C 440.5,486.5 440.5,487.5 440.5,488.5C 440.793,491.754 440.126,494.754 438.5,497.5C 408.334,498.013 378.334,499.346 348.5,501.5C 300.485,502.582 252.485,503.415 204.5,504C 205.167,503.667 205.833,503.333 206.5,503C 230.396,500.391 254.396,498.391 278.5,497C 279.416,496.722 280.082,496.222 280.5,495.5C 331.567,494.292 382.567,492.459 433.5,490C 435.25,488.681 437.25,488.181 439.5,488.5C 439.263,487.209 439.596,486.209 440.5,485.5 Z"/></g>
<g><path style="opacity:0.997" fill="#eaa12f" d="M 495.5,494.5 C 493.673,502.992 488.673,508.658 480.5,511.5C 461.5,511.5 442.5,511.5 423.5,511.5C 426.899,509.962 430.233,508.129 433.5,506C 435.82,503.522 437.486,500.689 438.5,497.5C 440.126,494.754 440.793,491.754 440.5,488.5C 458.557,488.546 476.557,487.879 494.5,486.5C 495.48,489.086 495.813,491.753 495.5,494.5 Z"/></g>
<g><path style="opacity:1" fill="#f7c044" d="M 280.5,495.5 C 280.082,496.222 279.416,496.722 278.5,497C 254.396,498.391 230.396,500.391 206.5,503C 205.833,503.333 205.167,503.667 204.5,504C 252.485,503.415 300.485,502.582 348.5,501.5C 344.353,502.325 340.019,502.825 335.5,503C 334.672,503.915 333.672,504.581 332.5,505C 328.167,505.333 323.833,505.667 319.5,506C 317.51,507.751 315.177,508.751 312.5,509C 308.5,509.333 304.5,509.667 300.5,510C 299.944,510.383 299.611,510.883 299.5,511.5C 209.833,511.5 120.167,511.5 30.5,511.5C 27.5964,509.705 24.5964,507.872 21.5,506C 20.2423,504.259 19.2423,502.426 18.5,500.5C 54.3342,499.633 90.3342,498.967 126.5,498.5C 177.744,496.597 229.077,495.597 280.5,495.5 Z"/></g>
<g><path style="opacity:1" fill="#f7bb3a" d="M 438.5,497.5 C 437.486,500.689 435.82,503.522 433.5,506C 430.233,508.129 426.899,509.962 423.5,511.5C 382.167,511.5 340.833,511.5 299.5,511.5C 299.611,510.883 299.944,510.383 300.5,510C 304.5,509.667 308.5,509.333 312.5,509C 315.177,508.751 317.51,507.751 319.5,506C 323.833,505.667 328.167,505.333 332.5,505C 333.672,504.581 334.672,503.915 335.5,503C 340.019,502.825 344.353,502.325 348.5,501.5C 378.334,499.346 408.334,498.013 438.5,497.5 Z"/></g>
</svg>
