<svg width="40" height="28" viewBox="0 0 40 28" fill="none" xmlns="http://www.w3.org/2000/svg">
<rect x="39.5" y="0.5" width="27" height="39" rx="5.5" transform="rotate(90 39.5 0.5)" fill="white" stroke="#EBEDF0"/>
<g clip-path="url(#clip0_2_3632)">
<path d="M27.9795 21.6743L25.6739 16.0928C25.6377 16.005 25.5526 15.9479 25.4583 15.9479H14.542C14.4476 15.9479 14.3625 16.0051 14.3263 16.0928L12.0206 21.6743C11.9906 21.7469 11.9986 21.8298 12.042 21.8953C12.0853 21.9608 12.1582 22.0001 12.2363 22.0001H27.7639C27.842 22.0001 27.9149 21.9607 27.9582 21.8953C28.0016 21.8299 28.0095 21.7469 27.9795 21.6743Z" fill="#A8EEFC"/>
<path d="M27.0201 22.0001H27.7638C27.8419 22.0001 27.9148 21.9607 27.9582 21.8953C28.0015 21.8299 28.0095 21.7469 27.9795 21.6743L25.6739 16.0928C25.6376 16.005 25.5526 15.9479 25.4582 15.9479H24.52L27.0201 22.0001Z" fill="#7EE5F2"/>
<path d="M15.8489 18.053L16.6445 15.9427H14.527C14.4327 15.9427 14.3476 15.9999 14.3114 16.0877L13.4995 18.053H15.8489Z" fill="#4CE166"/>
<path d="M25.4433 15.9427H18.0909L20.2354 17.8127H26.3716L25.659 16.0877C25.6227 16 25.5377 15.9427 25.4433 15.9427Z" fill="#4CE166"/>
<path d="M26.4266 17.9462L26.4708 18.0531L26.4266 17.9462Z" fill="#4CE166"/>
<path d="M27.0806 19.5292L26.3716 17.8127H20.2354L18.091 15.9427H16.6524H16.4694L15.6931 17.8122H13.599L13.1286 18.9509L12.8898 19.5292H14.9861L13.9676 21.9949H15.8731L17.5091 17.9895L22.2268 21.9949H25.012L22.1925 19.5292H27.0806Z" fill="#FFDB56"/>
<path d="M19.9852 6C17.203 6 14.9395 8.28053 14.9395 11.0837C14.9395 12.0501 15.2005 13.0753 15.7153 14.131C16.1227 14.9665 16.6895 15.8236 17.4 16.6785C18.6054 18.129 19.7923 19.0602 19.8422 19.0992C19.8844 19.132 19.9348 19.1484 19.9852 19.1484C20.0356 19.1484 20.0861 19.132 20.1282 19.0992C20.1781 19.0602 21.365 18.129 22.5704 16.6785C23.2809 15.8236 23.8478 14.9665 24.2551 14.131C24.77 13.0753 25.031 12.0501 25.031 11.0837C25.031 8.28053 22.7675 6 19.9852 6ZM19.9852 9.14994C21.0452 9.14994 21.9045 10.0157 21.9045 11.0837C21.9045 12.1517 21.0452 13.0174 19.9852 13.0174C18.9252 13.0174 18.0659 12.1517 18.0659 11.0837C18.0659 10.0157 18.9252 9.14994 19.9852 9.14994Z" fill="#FF4A4A"/>
<path d="M19.9852 6C19.8192 6 19.655 6.00837 19.493 6.02422C22.0452 6.27428 24.0466 8.44781 24.0466 11.0837C24.0466 12.0501 23.7856 13.0753 23.2708 14.131C22.8634 14.9665 22.2966 15.8236 21.5861 16.6785C20.7594 17.6733 19.9415 18.4237 19.493 18.8097C19.6985 18.9865 19.8265 19.0869 19.8422 19.0992C19.8843 19.132 19.9347 19.1483 19.9852 19.1483C20.0356 19.1483 20.086 19.1319 20.1281 19.0992C20.1781 19.0602 21.365 18.129 22.5704 16.6785C23.2809 15.8235 23.8477 14.9664 24.2551 14.131C24.7699 13.0753 25.0309 12.05 25.0309 11.0837C25.031 8.28053 22.7675 6 19.9852 6Z" fill="#E7343F"/>
<path d="M15.8732 21.9947H22.2268L17.5091 17.9893L15.8732 21.9947Z" fill="#4CE166"/>
<path d="M25.2776 17.8129L25.9866 19.5293H27.0806L26.3716 17.8129H25.2776Z" fill="#FFBB24"/>
<path d="M25.2776 17.8128H26.3716L25.659 16.0878C25.6228 16 25.5377 15.9429 25.4433 15.9429H24.5051L25.2776 17.8128Z" fill="#44C868"/>
</g>
<defs>
<clipPath id="clip0_2_3632">
<rect width="16" height="16" fill="white" transform="translate(12 6)"/>
</clipPath>
</defs>
</svg>
