<svg width="40" height="28" viewBox="0 0 40 28" fill="none" xmlns="http://www.w3.org/2000/svg">
<rect x="39.5" y="0.5" width="27" height="39" rx="5.5" transform="rotate(90 39.5 0.5)" fill="white" stroke="#EBEDF0"/>
<path d="M32 9C32 7.89543 31.1046 7 30 7H10C8.89543 7 8 7.89543 8 9V20C8 21.1046 8.89543 22 10 22H30C31.1046 22 32 21.1046 32 20V9Z" fill="#4DCFE0"/>
<path d="M29.0193 11.6314C28.0956 11.6034 27.34 10.8757 27.312 9.95209C27.312 9.64422 27.0601 9.42029 26.7522 9.42029H13.2338C12.926 9.42029 12.702 9.64422 12.6741 9.95209C12.6181 10.8757 11.8624 11.6034 10.9388 11.6314C10.6309 11.6314 10.379 11.8833 10.379 12.1912V16.4454C10.379 16.7533 10.6309 17.0051 10.9388 17.0051C11.8904 17.0331 12.6461 17.7608 12.6741 18.6844C12.6741 18.9923 12.926 19.2163 13.2338 19.2163H26.7242C27.0321 19.2163 27.256 18.9923 27.284 18.6844C27.34 17.7608 28.0956 17.0332 29.0193 17.0051C29.3271 17.0051 29.579 16.7533 29.579 16.4454V12.1912C29.579 11.8833 29.3271 11.6314 29.0193 11.6314Z" fill="#00BBD3"/>
<path d="M26.5563 13.2267C25.9405 13.2267 25.4647 13.7025 25.4647 14.3183C25.4647 14.934 25.9685 15.4098 26.5563 15.4098C27.144 15.4098 27.6479 14.906 27.6479 14.3183C27.6478 13.7305 27.172 13.2267 26.5563 13.2267Z" fill="#4DCFE0"/>
<path d="M14.4933 14.3183C14.4933 13.7305 14.0175 13.2267 13.4018 13.2267C12.786 13.2267 12.3102 13.7025 12.3102 14.3183C12.3102 14.934 12.786 15.4098 13.4018 15.4098C14.0175 15.4098 14.4933 14.906 14.4933 14.3183Z" fill="#4DCFE0"/>
<path d="M20.6508 12.0512C20.4268 11.9952 20.203 11.9673 19.9511 11.9673C19.6992 11.9673 19.4753 11.9952 19.2514 12.0792C18.4957 12.3311 17.88 12.9469 17.684 13.6746C17.6281 13.8985 17.6001 14.1224 17.6001 14.3743C17.6001 14.6262 17.6281 14.8501 17.7121 15.074C17.964 15.8297 18.5797 16.4454 19.3074 16.6413C19.5313 16.6973 19.7552 16.7253 20.0071 16.7253C20.259 16.7253 20.4829 16.6973 20.7068 16.6133C21.4625 16.3614 22.0782 15.7457 22.2742 15.018C22.3301 14.794 22.3581 14.5702 22.3581 14.3183C22.3581 14.0664 22.3301 13.8424 22.2461 13.6186C21.9942 12.8629 21.3785 12.2471 20.6508 12.0512Z" fill="#D4E1F4"/>
</svg>
