<svg width="40" height="28" viewBox="0 0 40 28" fill="none" xmlns="http://www.w3.org/2000/svg">
<rect x="39.5" y="0.5" width="27" height="39" rx="5.5" transform="rotate(90 39.5 0.5)" fill="white" stroke="#EBEDF0"/>
<path fill-rule="evenodd" clip-rule="evenodd" d="M5.87603 13.1477C6.22127 12.4127 6.69236 11.9017 7.19137 11.4074C7.69039 10.9132 8.3406 10.3834 9.03156 9.98678C10.048 9.40333 10.8949 9.7024 11.5954 10.0756C12.2959 10.4487 12.8893 10.8954 13.3883 11.3897C13.8873 11.884 14.429 12.6164 14.6244 13.1448C14.9839 14.1168 15.079 14.7624 14.5896 15.6694C14.2471 16.3041 13.8515 16.7557 13.3525 17.2499C13.2731 17.3285 13.1928 17.4096 13.1111 17.4921L13.1111 17.4921C12.6792 17.9281 12.2102 18.4016 11.6537 18.7393C10.8747 19.2122 9.87519 19.074 8.94191 18.6351C8.2423 18.306 7.8811 17.975 7.38208 17.4808C6.88305 16.9865 6.24463 16.2776 5.94775 15.6694C5.5151 14.7831 5.44192 14.072 5.87603 13.1477ZM6.32682 13.2115C6.62798 12.5703 7.01717 12.0587 7.45248 11.6276C7.88778 11.1964 8.44179 10.732 9.07945 10.4542C9.70644 10.1809 10.8131 10.2704 11.316 10.5316C11.8188 10.7928 12.4447 11.2468 12.88 11.6779C13.3153 12.1091 13.8709 12.7157 14.0414 13.1766C14.3549 14.0245 14.5283 14.555 14.2769 15.3951C14.1022 15.9785 13.5772 16.6104 13.159 17.0416L13.0765 17.1268C12.6346 17.5842 11.8356 18.4112 11.2811 18.6333C10.4364 18.9717 9.59983 18.6008 8.87265 18.1652C8.25845 17.7973 7.9044 17.4559 7.50339 17.0247C7.10239 16.5936 6.64835 15.9418 6.38939 15.4113C6.01199 14.6381 5.94814 14.0178 6.32682 13.2115Z" fill="#28ACD4"/>
<path fill-rule="evenodd" clip-rule="evenodd" d="M15.28 13.1477C14.9347 12.4127 14.4636 11.9017 13.9646 11.4074C13.4656 10.9132 12.8154 10.3834 12.1244 9.98678C11.108 9.40333 10.2611 9.7024 9.56059 10.0756C8.86012 10.4487 8.26671 10.8954 7.76768 11.3897C7.26866 11.884 6.727 12.6164 6.53156 13.1448C6.17209 14.1168 6.07699 14.7624 6.56644 15.6694C6.90889 16.3041 7.30454 16.7557 7.80355 17.2499C7.8829 17.3285 7.96324 17.4096 8.0449 17.4921L8.04491 17.4921C8.47679 17.9281 8.94578 18.4016 9.50229 18.7393C10.2813 19.2122 11.2808 19.074 12.2141 18.6351C12.9137 18.306 13.2749 17.975 13.7739 17.4808C14.273 16.9865 14.9114 16.2776 15.2083 15.6694C15.6409 14.7831 15.7141 14.072 15.28 13.1477ZM14.8288 13.2115C14.5277 12.5703 14.1385 12.0587 13.7032 11.6276C13.2679 11.1964 12.7139 10.732 12.0762 10.4542C11.4492 10.1809 10.3425 10.2704 9.83967 10.5316C9.33684 10.7928 8.71098 11.2468 8.27567 11.6779C7.84037 12.1091 7.28475 12.7157 7.11428 13.1766C6.80073 14.0245 6.62739 14.555 6.87879 15.3951C7.05341 15.9785 7.57846 16.6104 7.99662 17.0416L8.0791 17.1268C8.52105 17.5842 9.32008 18.4112 9.87451 18.6333C10.7192 18.9717 11.5558 18.6008 12.283 18.1652C12.8972 17.7973 13.2512 17.4559 13.6522 17.0247C14.0533 16.5936 14.5073 15.9418 14.7663 15.4113C15.1436 14.6381 15.2075 14.0178 14.8288 13.2115Z" fill="#28ACD4"/>
<mask id="mask0_2_3750" style="mask-type:luminance" maskUnits="userSpaceOnUse" x="5" y="9" width="12" height="11">
<path fill-rule="evenodd" clip-rule="evenodd" d="M5.00012 14.5158V14.4352C5.00671 14.0118 5.11749 13.579 5.34793 13.0967C5.76019 12.2336 6.37927 11.6338 6.97518 11.0534C7.5712 10.4731 8.29129 9.85112 9.11651 9.38548C10.3304 8.70046 11.3419 9.05162 12.1785 9.48974C13.0151 9.92784 13.7238 10.4523 14.3198 11.0326C14.9158 11.6129 15.5627 12.4729 15.7961 13.0933C16.2254 14.2344 16.339 14.9923 15.7545 16.0573C15.3455 16.8025 14.8729 17.3326 14.2769 17.9129C13.681 18.4932 12.9676 19.0655 12.1785 19.5392C11.0741 20.2022 10.099 20.1031 9.00941 19.5392C8.14162 19.09 7.74256 18.7642 7.14652 18.1839C6.55058 17.6036 5.78812 16.7714 5.43355 16.0573C5.16102 15.5085 5.00792 15.017 5.00012 14.5158H5.00012ZM5.62245 13.1025C5.17011 14.0491 5.24632 14.7773 5.69712 15.6851C6.00642 16.308 6.67152 17.034 7.19139 17.5402C7.71132 18.0464 8.05942 18.3306 8.8164 18.7224C9.76692 19.2143 10.6175 19.3008 11.5809 18.7224C12.2692 18.3093 12.8915 17.81 13.4114 17.3038C13.9313 16.7976 14.3435 16.3351 14.7003 15.6851C15.2102 14.7561 15.1111 14.095 14.7366 13.0995C14.533 12.5583 13.9687 11.8081 13.4488 11.302C12.9289 10.7957 12.3107 10.3383 11.5809 9.95607C10.8512 9.57391 9.96874 9.26758 8.90983 9.86512C8.19001 10.2713 7.56184 10.8139 7.04192 11.3201C6.5221 11.8264 5.98207 12.3496 5.62245 13.1025Z" fill="white"/>
</mask>
<g mask="url(#mask0_2_3750)">
<path d="M5 20.0015H36.0006V8.99963H5V20.0015Z" fill="#28ACD4"/>
</g>
<mask id="mask1_2_3750" style="mask-type:luminance" maskUnits="userSpaceOnUse" x="5" y="9" width="12" height="11">
<path fill-rule="evenodd" clip-rule="evenodd" d="M5.88562 14.5136V14.446C5.89169 14.0903 5.99367 13.7267 6.20581 13.3216C6.58534 12.5966 7.15527 12.0928 7.70387 11.6053C8.25257 11.1178 8.91549 10.5953 9.67519 10.2042C10.7927 9.62876 11.7239 9.92373 12.4941 10.2918C13.2642 10.6598 13.9167 11.1003 14.4654 11.5877C15.014 12.0752 15.6096 12.7976 15.8245 13.3187C16.2197 14.2773 16.3243 14.9139 15.7861 15.8085C15.4096 16.4345 14.9746 16.8798 14.4259 17.3672C13.8773 17.8547 13.2205 18.3354 12.4941 18.7333C11.4774 19.2902 10.5797 19.2069 9.5766 18.7333C8.7777 18.3559 8.41033 18.0823 7.8616 17.5949C7.31298 17.1074 6.61106 16.4084 6.28463 15.8085C6.03374 15.3475 5.8928 14.9346 5.88562 14.5136H5.88562ZM6.45866 13.325C6.04223 14.1201 6.1124 14.7318 6.5274 15.4943C6.81214 16.0176 7.42444 16.6274 7.90304 17.0527C8.38169 17.4779 8.70215 17.7165 9.39903 18.0457C10.2741 18.4589 11.0571 18.5315 11.944 18.0457C12.5777 17.6986 13.1506 17.2793 13.6292 16.854C14.1078 16.4289 14.4873 16.0404 14.8158 15.4943C15.2852 14.714 15.194 14.1586 14.8492 13.3225C14.6618 12.8679 14.1423 12.2377 13.6636 11.8125C13.185 11.3873 12.6159 11.003 11.944 10.682C11.2723 10.361 10.4599 10.1036 9.48504 10.6056C8.82237 10.9468 8.24407 11.4025 7.76543 11.8277C7.28688 12.253 6.78972 12.6926 6.45866 13.325Z" fill="white"/>
</mask>
<g mask="url(#mask1_2_3750)">
<path d="M5.8855 19.1217H34.4248V9.88013H5.8855V19.1217Z" fill="#28ACD4"/>
</g>
<mask id="mask2_2_3750" style="mask-type:luminance" maskUnits="userSpaceOnUse" x="5" y="9" width="11" height="10">
<path fill-rule="evenodd" clip-rule="evenodd" d="M5.88562 13.6131V13.6807C5.89116 14.0364 5.98435 14.4 6.1782 14.8051C6.525 15.5301 7.04578 16.034 7.54706 16.5215C8.04845 17.0089 8.65419 17.5314 9.34837 17.9225C10.3695 18.498 11.2204 18.203 11.9242 17.835C12.6279 17.4669 13.2241 17.0264 13.7254 16.539C14.2268 16.0515 14.771 15.3291 14.9674 14.808C15.3285 13.8494 15.424 13.2128 14.9323 12.3182C14.5882 11.6923 14.1908 11.2469 13.6894 10.7595C13.188 10.272 12.5879 9.79129 11.9242 9.39342C10.9951 8.83652 10.1749 8.91978 9.25828 9.39342C8.52829 9.77076 8.1926 10.0444 7.69119 10.5318C7.18988 11.0193 6.5485 11.7184 6.25022 12.3182C6.02097 12.7792 5.89218 13.1921 5.88562 13.6131H5.88562ZM6.40824 14.793C6.02773 13.9978 6.09184 13.3862 6.47105 12.6236C6.73124 12.1004 7.29073 11.4905 7.72806 11.0653C8.16542 10.6401 8.45825 10.4014 9.09504 10.0723C9.89462 9.65909 10.6101 9.58647 11.4206 10.0723C11.9996 10.4193 12.5231 10.8387 12.9604 11.2639C13.3977 11.6891 13.7445 12.0776 14.0446 12.6236C14.4735 13.404 14.3902 13.9594 14.0752 14.7955C13.9039 15.2501 13.4292 15.8803 12.9918 16.3055C12.5545 16.7307 12.0345 17.115 11.4206 17.436C10.8067 17.757 10.0644 18.0143 9.17363 17.5124C8.56811 17.1712 8.03968 16.7154 7.60231 16.2902C7.16504 15.8649 6.71075 15.4254 6.40824 14.793Z" fill="white"/>
</mask>
<g mask="url(#mask2_2_3750)">
<path d="M5.8855 9.00518H31.9635V18.2467H5.8855V9.00518Z" fill="#28ACD4"/>
</g>
<mask id="mask3_2_3750" style="mask-type:luminance" maskUnits="userSpaceOnUse" x="5" y="9" width="12" height="11">
<path fill-rule="evenodd" clip-rule="evenodd" d="M16.1562 14.5158V14.4352C16.1497 14.0118 16.0389 13.579 15.8084 13.0967C15.3962 12.2336 14.7771 11.6338 14.1812 11.0534C13.5852 10.4731 12.8651 9.85112 12.0399 9.38548C10.826 8.70046 9.81442 9.05162 8.97783 9.48974C8.1413 9.92784 7.43257 10.4523 6.83657 11.0326C6.2406 11.6129 5.59367 12.4729 5.36022 13.0933C4.93094 14.2344 4.81737 14.9923 5.40191 16.0573C5.81091 16.8025 6.28343 17.3326 6.87945 17.9129C7.47541 18.4932 8.18879 19.0655 8.97783 19.5392C10.0823 20.2022 11.0574 20.1031 12.147 19.5392C13.0148 19.09 13.4138 18.7642 14.0099 18.1839C14.6058 17.6036 15.3682 16.7714 15.7228 16.0573C15.9954 15.5085 16.1485 15.017 16.1562 14.5158H16.1562ZM15.5332 13.1025C15.9856 14.0491 15.9093 14.7773 15.4586 15.6851C15.1493 16.308 14.4841 17.034 13.9643 17.5402C13.4444 18.0464 13.0963 18.3306 12.3393 18.7224C11.3887 19.2143 10.5382 19.3008 9.57477 18.7224C8.88645 18.3093 8.26415 17.81 7.74428 17.3038C7.22438 16.7976 6.81217 16.3351 6.45541 15.6851C5.94551 14.7561 6.04457 14.095 6.41904 13.0995C6.62269 12.5583 7.18698 11.8081 7.7069 11.302C8.22677 10.7957 8.84499 10.3383 9.57477 9.95607C10.3045 9.57391 11.1869 9.26758 12.2458 9.86512C12.9657 10.2713 13.5938 10.8139 14.1138 11.3201C14.6336 11.8264 15.1736 12.3496 15.5332 13.1025Z" fill="white"/>
</mask>
<g mask="url(#mask3_2_3750)">
<path d="M36.0007 20.0018H5.00017V9H36.0007V20.0018Z" fill="#28ACD4"/>
</g>
<mask id="mask4_2_3750" style="mask-type:luminance" maskUnits="userSpaceOnUse" x="6" y="10" width="9" height="9">
<path fill-rule="evenodd" clip-rule="evenodd" d="M14.0686 15.4649C13.779 16.0957 13.3442 16.5343 12.9256 16.9585C12.507 17.3827 12.0012 17.8373 11.4216 18.1778C10.569 18.6785 9.85847 18.4218 9.27087 18.1016C8.68327 17.7813 8.18548 17.3979 7.76686 16.9737C7.34825 16.5495 6.89387 15.9209 6.72992 15.4674C6.42838 14.6332 6.34861 14.0791 6.75918 13.3006C7.04645 12.7559 7.37833 12.3684 7.79695 11.9442C8.21556 11.52 8.71664 11.1016 9.27087 10.7554C10.0466 10.2708 10.7139 10.3787 11.4968 10.7554C12.0837 11.0378 12.3867 11.3219 12.8053 11.7461C13.2239 12.1703 13.7594 12.7786 14.0085 13.3006C14.3714 14.0614 14.4328 14.6716 14.0686 15.4649ZM13.6978 15.4131C14.0155 14.7211 13.9619 14.1888 13.6453 13.5252C13.4281 13.0698 12.9609 12.5391 12.5957 12.1691C12.2306 11.799 11.9861 11.5913 11.4543 11.3049C10.7867 10.9453 9.78377 11.1239 9.51259 11.3049C9.07276 11.5985 8.59203 11.9719 8.22687 12.3419C7.8617 12.712 7.5722 13.05 7.32159 13.5252C6.96344 14.2043 7.03303 14.6876 7.29607 15.4152C7.43908 15.8109 7.83545 16.3592 8.20061 16.7293C8.56579 17.0993 9.09078 17.4889 9.51259 17.7131C9.93441 17.9373 10.8628 18.0141 11.3887 17.7796C11.9236 17.5411 12.3537 17.1228 12.7189 16.7528C13.084 16.3827 13.4452 15.9634 13.6978 15.4131Z" fill="white"/>
</mask>
<g mask="url(#mask4_2_3750)">
<path d="M4.99976 20.0024H36.0003V9.00061H4.99976V20.0024Z" fill="#28ACD4"/>
</g>
<mask id="mask5_2_3750" style="mask-type:luminance" maskUnits="userSpaceOnUse" x="6" y="10" width="9" height="9">
<path fill-rule="evenodd" clip-rule="evenodd" d="M7.08736 15.4649C7.37698 16.0957 7.81179 16.5343 8.23039 16.9585C8.64901 17.3827 9.15478 17.8373 9.73442 18.1778C10.587 18.6785 11.2975 18.4218 11.8851 18.1016C12.4727 17.7813 12.9705 17.3979 13.3891 16.9737C13.8078 16.5495 14.2621 15.9209 14.4261 15.4674C14.7276 14.6332 14.8074 14.0791 14.3968 13.3006C14.1096 12.7559 13.7777 12.3684 13.3591 11.9442C12.9404 11.52 12.4394 11.1016 11.8851 10.7554C11.1094 10.2708 10.4421 10.3787 9.65921 10.7554C9.07232 11.0378 8.76934 11.3219 8.35073 11.7461C7.93211 12.1703 7.39656 12.7786 7.14752 13.3006C6.78459 14.0614 6.7232 14.6716 7.08736 15.4649ZM7.45771 15.4131C7.14005 14.7211 7.1936 14.1888 7.5102 13.5252C7.72745 13.0698 8.19461 12.5391 8.55977 12.1691C8.92495 11.799 9.16945 11.5913 9.7012 11.3049C10.3688 10.9453 11.3717 11.1239 11.6429 11.3049C12.0828 11.5985 12.5635 11.9719 12.9287 12.3419C13.2938 12.712 13.5833 13.05 13.8339 13.5252C14.1921 14.2043 14.1225 14.6876 13.8594 15.4152C13.7164 15.8109 13.3201 16.3592 12.9549 16.7293C12.5897 17.0993 12.0647 17.4889 11.6429 17.7131C11.2211 17.9373 10.2928 18.0141 9.7668 17.7796C9.23188 17.5411 8.80183 17.1228 8.43667 16.7528C8.0715 16.3827 7.71035 15.9634 7.45771 15.4131Z" fill="white"/>
</mask>
<g mask="url(#mask5_2_3750)">
<path d="M16.1558 20.0024H-14.8448V9.00061H16.1558V20.0024Z" fill="#28ACD4"/>
</g>
<mask id="mask6_2_3750" style="mask-type:luminance" maskUnits="userSpaceOnUse" x="6" y="10" width="10" height="10">
<path fill-rule="evenodd" clip-rule="evenodd" d="M14.8676 15.9202C14.5318 16.6365 14.0276 17.1343 13.5423 17.616C13.0569 18.0976 12.4704 18.6138 11.7983 19.0003C10.8097 19.5688 9.98583 19.2774 9.30448 18.9138C8.62317 18.5502 8.04595 18.1149 7.56055 17.6333C7.07517 17.1517 6.54825 16.4379 6.35816 15.923C6.00853 14.9759 6.07965 14.3827 6.47524 13.5079C6.76758 12.8615 7.11008 12.4045 7.59548 11.9229C8.08087 11.4413 8.57454 11.0337 9.23059 10.6631C10.0931 10.1758 11.0351 10.1591 11.8855 10.5732C12.6041 10.923 12.9173 11.2163 13.4028 11.698C13.8881 12.1796 14.5091 12.8703 14.7979 13.463C15.2188 14.3267 15.2899 15.0195 14.8676 15.9202ZM14.6463 15.912C15.0147 15.1263 14.9526 14.522 14.5855 13.7685C14.3336 13.2515 13.7919 12.649 13.3685 12.2289C12.945 11.8087 12.6615 11.5729 12.045 11.2477C11.2709 10.8394 10.5781 10.7677 9.79348 11.2477C9.2329 11.5906 8.67727 11.9839 8.25385 12.404C7.83043 12.8241 7.54351 13.229 7.25295 13.7685C6.83769 14.5396 6.91835 15.0883 7.22334 15.9145C7.38919 16.3636 7.84877 16.9863 8.27222 17.4064C8.69562 17.8265 9.19912 18.2062 9.79348 18.5234C10.3878 18.8406 11.1065 19.0948 11.9689 18.5989C12.5552 18.2617 13.0668 17.8114 13.4902 17.3913C13.9136 16.9711 14.3534 16.5368 14.6463 15.912Z" fill="white"/>
</mask>
<g mask="url(#mask6_2_3750)">
<path d="M5 20.0004H36.0006V8.99854H5V20.0004Z" fill="#28ACD4"/>
</g>
<mask id="mask7_2_3750" style="mask-type:luminance" maskUnits="userSpaceOnUse" x="6" y="9" width="10" height="11">
<path fill-rule="evenodd" clip-rule="evenodd" d="M6.30683 15.6938C6.66514 16.4582 7.20319 16.9895 7.72111 17.5035C8.23912 18.0174 8.86497 18.5683 9.58218 18.9807C10.6372 19.5874 11.5163 19.2764 12.2434 18.8884C12.9705 18.5004 13.5865 18.0359 14.1045 17.5219C14.6224 17.008 15.1847 16.2463 15.3876 15.6968C15.7607 14.6862 15.6848 14.0531 15.2626 13.1196C14.9507 12.4298 14.5852 11.9421 14.0672 11.4282C13.5492 10.9142 13.0224 10.4793 12.3223 10.0838C11.4019 9.56377 10.3966 9.54594 9.4891 9.98781C8.72228 10.3612 8.38806 10.6742 7.87002 11.1881C7.35208 11.7021 6.68942 12.4392 6.38125 13.0716C5.9321 13.9934 5.85619 14.7327 6.30683 15.6938ZM6.54407 15.678C6.15093 14.8396 6.21717 14.1947 6.60896 13.3907C6.87778 12.8389 7.45584 12.196 7.90767 11.7476C8.35954 11.2993 8.66208 11.0476 9.32 10.7006C10.1461 10.2649 10.8853 10.1884 11.7227 10.7006C12.3209 11.0665 12.9138 11.4862 13.3657 11.9345C13.8175 12.3828 14.1237 12.815 14.4338 13.3907C14.8769 14.2134 14.7908 14.799 14.4654 15.6806C14.2884 16.16 13.7979 16.8244 13.3461 17.2727C12.8942 17.7211 12.3569 18.1263 11.7227 18.4647C11.0885 18.8032 10.3215 19.0745 9.4012 18.5453C8.77559 18.1855 8.22963 17.705 7.77775 17.2567C7.32597 16.8083 6.85662 16.3448 6.54407 15.678Z" fill="white"/>
</mask>
<g mask="url(#mask7_2_3750)">
<path d="M36.2318 20.0004H5.0006V8.31287H36.2318V20.0004Z" fill="#28ACD4"/>
</g>
<path fill-rule="evenodd" clip-rule="evenodd" d="M31.5488 16.1964C31.5488 16.2611 31.5474 16.3165 31.5433 16.3614C31.5393 16.4063 31.5325 16.4459 31.5244 16.4776C31.5176 16.5106 31.5067 16.5383 31.4932 16.562C31.4796 16.5845 31.4593 16.6109 31.4295 16.6399C31.401 16.669 31.344 16.7072 31.2614 16.7534C31.1773 16.7983 31.0756 16.8432 30.955 16.8854C30.8343 16.9264 30.6974 16.962 30.5429 16.9897C30.3883 17.0174 30.2202 17.032 30.0399 17.032C29.6888 17.032 29.3716 16.9792 29.0882 16.8736C28.8049 16.768 28.5636 16.6096 28.3657 16.3997C28.1664 16.1898 28.0146 15.9284 27.9088 15.613C27.8031 15.2988 27.7502 14.9332 27.7502 14.5161C27.7502 14.091 27.8085 13.7135 27.9251 13.3835C28.0417 13.0535 28.2044 12.7763 28.4131 12.5519C28.6219 12.3275 28.8727 12.1586 29.1655 12.0424C29.457 11.9262 29.7796 11.8682 30.1321 11.8682C30.2744 11.8682 30.4114 11.88 30.5442 11.9038C30.6771 11.9262 30.7991 11.9566 30.9116 11.9949C31.0241 12.0318 31.1244 12.0754 31.2153 12.1242C31.3047 12.1744 31.3685 12.2166 31.4037 12.251C31.4389 12.2866 31.4633 12.3156 31.4769 12.3381C31.4905 12.3618 31.5013 12.3909 31.5081 12.4265C31.5162 12.4635 31.523 12.5057 31.5271 12.5546C31.5311 12.6034 31.5325 12.6628 31.5325 12.7354C31.5325 12.812 31.5298 12.878 31.5244 12.9321C31.5189 12.9862 31.5094 13.0298 31.4972 13.0628C31.4837 13.0958 31.4674 13.1208 31.4498 13.1354C31.4308 13.1512 31.4091 13.1591 31.3861 13.1591C31.3468 13.1591 31.2966 13.1367 31.2356 13.0918C31.1746 13.0469 31.096 12.9968 30.9997 12.9413C30.9035 12.8859 30.7882 12.8357 30.654 12.7908C30.5212 12.746 30.3626 12.7235 30.1768 12.7235C29.9735 12.7235 29.7918 12.7644 29.6319 12.845C29.4719 12.9268 29.3363 13.0416 29.2238 13.1921C29.1113 13.3439 29.0259 13.5261 28.9676 13.7399C28.9093 13.9524 28.8808 14.194 28.8808 14.4619C28.8808 14.755 28.912 15.0097 28.9744 15.2249C29.0367 15.4387 29.1249 15.6169 29.2401 15.7555C29.354 15.8941 29.4936 15.9984 29.6563 16.0657C29.8189 16.1344 30.002 16.1687 30.2053 16.1687C30.3897 16.1687 30.5496 16.1476 30.6852 16.1053C30.8194 16.0631 30.9346 16.0156 31.0309 15.9654C31.1285 15.9139 31.2071 15.8677 31.2695 15.8268C31.3318 15.7859 31.3793 15.7648 31.4145 15.7648C31.4403 15.7648 31.462 15.77 31.4769 15.7806C31.4932 15.7912 31.5067 15.811 31.5176 15.8426C31.5271 15.873 31.5352 15.9166 31.5406 15.972C31.546 16.0288 31.5488 16.1027 31.5488 16.1964ZM21.7872 16.1965C21.7872 16.2612 21.7858 16.3166 21.7818 16.3615C21.7777 16.4064 21.7709 16.446 21.7628 16.4777C21.756 16.5107 21.7452 16.5384 21.7316 16.5622C21.718 16.5846 21.6977 16.611 21.6679 16.64C21.6394 16.6691 21.5825 16.7074 21.4998 16.7536C21.4157 16.7984 21.3141 16.8433 21.1934 16.8856C21.0728 16.9265 20.9358 16.9621 20.7813 16.9898C20.6267 17.0176 20.4586 17.0321 20.2783 17.0321C19.9272 17.0321 19.61 16.9793 19.3267 16.8737C19.0433 16.7681 18.802 16.6097 18.6041 16.3998C18.4048 16.1899 18.253 15.9286 18.1473 15.6131C18.0415 15.2989 17.9886 14.9333 17.9886 14.5162C17.9886 14.0911 18.0469 13.7136 18.1635 13.3836C18.2801 13.0536 18.4428 12.7764 18.6516 12.552C18.8603 12.3276 19.1111 12.1587 19.4039 12.0425C19.6954 11.9264 20.0181 11.8683 20.3705 11.8683C20.5129 11.8683 20.6498 11.8802 20.7826 11.9039C20.9155 11.9264 21.0375 11.9567 21.15 11.995C21.2625 12.032 21.3629 12.0755 21.4537 12.1244C21.5432 12.1745 21.6069 12.2168 21.6421 12.2511C21.6774 12.2867 21.7018 12.3158 21.7153 12.3382C21.7289 12.362 21.7397 12.391 21.7465 12.4266C21.7546 12.4636 21.7614 12.5058 21.7655 12.5547C21.7696 12.6035 21.7709 12.6629 21.7709 12.7355C21.7709 12.8121 21.7682 12.8781 21.7628 12.9322C21.7574 12.9863 21.7479 13.0299 21.7357 13.0629C21.7221 13.0959 21.7058 13.121 21.6882 13.1355C21.6692 13.1513 21.6475 13.1592 21.6245 13.1592C21.5852 13.1592 21.535 13.1368 21.474 13.0919C21.413 13.047 21.3344 12.9969 21.2381 12.9414C21.1419 12.886 21.0267 12.8358 20.8924 12.791C20.7596 12.7461 20.601 12.7236 20.4153 12.7236C20.2119 12.7236 20.0303 12.7646 19.8703 12.8451C19.7103 12.9269 19.5748 13.0418 19.4622 13.1922C19.3497 13.344 19.2643 13.5262 19.206 13.74C19.1477 13.9525 19.1193 14.1941 19.1193 14.4621C19.1193 14.7551 19.1504 15.0099 19.2128 15.225C19.2752 15.4388 19.3633 15.6171 19.4785 15.7556C19.5924 15.8942 19.732 15.9985 19.8947 16.0658C20.0574 16.1345 20.2404 16.1688 20.4437 16.1688C20.6281 16.1688 20.7881 16.1477 20.9236 16.1054C21.0578 16.0632 21.1731 16.0157 21.2693 15.9655C21.3669 15.914 21.4456 15.8678 21.5079 15.8269C21.5703 15.786 21.6177 15.7649 21.653 15.7649C21.6787 15.7649 21.7004 15.7702 21.7153 15.7807C21.7316 15.7913 21.7452 15.8111 21.756 15.8428C21.7655 15.8731 21.7736 15.9167 21.779 15.9721C21.7845 16.0289 21.7872 16.1028 21.7872 16.1965ZM25.3119 16.5288C25.3119 16.6054 25.3092 16.6714 25.3024 16.7242C25.2956 16.777 25.2848 16.8205 25.2726 16.8548C25.259 16.8905 25.2428 16.9156 25.2224 16.9301C25.2021 16.9459 25.179 16.9538 25.1533 16.9538H22.7985C22.7118 16.9538 22.6386 16.9288 22.5789 16.8786C22.5193 16.8284 22.4894 16.7466 22.4894 16.6331V12.087C22.4894 12.062 22.4976 12.0382 22.5152 12.0171C22.5328 11.9973 22.5613 11.9801 22.6006 11.9669C22.6399 11.9537 22.6941 11.9445 22.7619 11.9366C22.8297 11.9286 22.9138 11.9247 23.0141 11.9247C23.1171 11.9247 23.2025 11.9286 23.2689 11.9366C23.334 11.9445 23.3882 11.9537 23.4275 11.9669C23.4669 11.9801 23.4953 11.9973 23.513 12.0171C23.5306 12.0382 23.5387 12.062 23.5387 12.087V16.1143H25.1533C25.179 16.1143 25.2034 16.1209 25.2224 16.1354C25.2428 16.15 25.259 16.1724 25.2726 16.2054C25.2861 16.2371 25.2956 16.2793 25.3024 16.3334C25.3092 16.3862 25.3119 16.4509 25.3119 16.5288ZM26.9001 16.8852C26.9177 16.8641 26.9259 16.8403 26.9259 16.8152V12.087C26.9259 12.062 26.9177 12.0382 26.9001 12.0171C26.8825 11.9973 26.854 11.9801 26.8147 11.9669C26.7754 11.9537 26.7212 11.9445 26.6561 11.9366C26.5897 11.9286 26.5043 11.9247 26.4012 11.9247C26.3009 11.9247 26.2169 11.9286 26.1504 11.9366C26.084 11.9445 26.0311 11.9537 25.9905 11.9669C25.9484 11.9801 25.92 11.9973 25.9023 12.0171C25.8847 12.0382 25.8766 12.062 25.8766 12.087V16.8152C25.8766 16.8403 25.8847 16.8641 25.9023 16.8852C25.92 16.905 25.9484 16.9222 25.9878 16.9354C26.0271 16.9472 26.0813 16.9578 26.1491 16.9657C26.2169 16.9736 26.3009 16.9776 26.4012 16.9776C26.5043 16.9776 26.5897 16.9736 26.6561 16.9657C26.7212 16.9578 26.7754 16.9472 26.8147 16.9354C26.854 16.9222 26.8825 16.905 26.9001 16.8852ZM35.9783 16.8786C35.9932 16.8575 36 16.8324 36 16.8034C36 16.7822 35.9946 16.7545 35.9824 16.7202C35.9702 16.6859 35.9349 16.6146 35.8766 16.509L34.3407 14.2465L35.7478 12.4474C35.8143 12.3458 35.859 12.2732 35.8834 12.227C35.9065 12.1794 35.9187 12.1346 35.9187 12.091C35.9187 12.0646 35.9105 12.0422 35.8943 12.021C35.8793 12.0012 35.8509 11.9828 35.8102 11.9696C35.7682 11.955 35.714 11.9445 35.6448 11.9366C35.5757 11.9286 35.4889 11.9247 35.3832 11.9247C35.2801 11.9247 35.1961 11.9273 35.1297 11.9326C35.0632 11.9379 35.009 11.9471 34.967 11.959C34.925 11.9722 34.8897 11.9894 34.864 12.0118C34.8368 12.0342 34.8152 12.062 34.7962 12.095L33.2914 14.2228V12.091C33.2914 12.062 33.2833 12.0382 33.267 12.0171C33.2521 11.9973 33.2236 11.9801 33.1843 11.9669C33.145 11.9537 33.0921 11.9445 33.0257 11.9366C32.9606 11.9286 32.8752 11.9247 32.7735 11.9247C32.6732 11.9247 32.5892 11.9286 32.5214 11.9366C32.4536 11.9445 32.4007 11.9537 32.3614 11.9669C32.3221 11.9801 32.2937 11.9973 32.276 12.0171C32.2584 12.0382 32.2503 12.062 32.2503 12.091V16.8073C32.2503 16.835 32.2584 16.8601 32.276 16.8812C32.2937 16.901 32.3221 16.9182 32.3614 16.9327C32.4007 16.9472 32.4536 16.9578 32.5214 16.9657C32.5892 16.9736 32.6732 16.9776 32.7735 16.9776C32.8752 16.9776 32.9606 16.9736 33.0257 16.9657C33.0921 16.9578 33.145 16.9472 33.1843 16.9327C33.2236 16.9195 33.2521 16.901 33.267 16.8812C33.2833 16.8601 33.2914 16.835 33.2914 16.8073V14.4313L34.845 16.8073C34.864 16.843 34.8897 16.8746 34.9223 16.8997C34.9548 16.9261 35.009 16.9459 35.0849 16.9578C35.1609 16.971 35.2842 16.9776 35.4564 16.9776C35.5648 16.9776 35.6543 16.9736 35.7262 16.9657C35.798 16.9578 35.8536 16.9472 35.8943 16.9327C35.9363 16.9182 35.9634 16.901 35.9783 16.8786Z" fill="#1A1919"/>
</svg>
