<svg width="40" height="28" viewBox="0 0 40 28" fill="none" xmlns="http://www.w3.org/2000/svg">
<rect x="39.5" y="0.5" width="27" height="39" rx="5.5" transform="rotate(90 39.5 0.5)" fill="white" stroke="#EBEDF0"/>
<path d="M13.0668 17.0583H21.0668V20.0084H13.0668V17.0583Z" fill="#E3DCDA"/>
<path d="M21.0664 17.0583V18.2071H13.0664V17.0583H21.0664Z" fill="#DBCECA"/>
<path d="M22.4001 9.46606C22.5473 9.46606 22.6667 9.58547 22.6667 9.73273V11.5994H22.8277V17.4663H12.2667C12.1194 17.4663 12 17.3469 12 17.1996V9.73276C12 9.58547 12.1194 9.4661 12.2667 9.4661H22.4001V9.46606Z" fill="#F3EDEA"/>
<path d="M13.6 15.3342C13.6 15.6288 13.8388 15.8676 14.1333 15.8676C14.4279 15.8676 14.6667 15.6288 14.6667 15.3342V11.6007C14.6667 11.3062 14.4279 11.0674 14.1333 11.0674C13.8388 11.0674 13.6 11.3062 13.6 11.6007V15.3342Z" fill="#D1CBC9"/>
<path d="M20.0002 15.3332C20.0002 15.6278 20.239 15.8666 20.5336 15.8666C20.8282 15.8666 21.0669 15.6278 21.0669 15.3332V11.5998C21.0669 11.3052 20.8282 11.0664 20.5336 11.0664C20.239 11.0664 20.0002 11.3052 20.0002 11.5998V15.3332Z" fill="#D1CBC9"/>
<path d="M16.7999 15.3332C16.7999 15.6278 17.0387 15.8666 17.3333 15.8666C17.6278 15.8666 17.8666 15.6278 17.8666 15.3332V11.5998C17.8666 11.3052 17.6278 11.0664 17.3333 11.0664C17.0387 11.0664 16.7999 11.3052 16.7999 11.5998V15.3332Z" fill="#D1CBC9"/>
<path d="M22.6669 19.8262V11.6006H25.313C25.5275 11.6006 25.7211 11.729 25.8044 11.9266L27.1884 15.8177C27.2022 15.8505 27.2094 15.8857 27.2094 15.9213V19.8262H22.6669Z" fill="#FFC200"/>
<path d="M24.6225 12.6658H24.0003C23.853 12.6658 23.7336 12.7852 23.7336 12.9324V15.5992C23.7336 15.7465 23.853 15.8658 24.0003 15.8658H25.7337C25.9239 15.8658 26.053 15.6722 25.9798 15.4966L24.8687 12.8299C24.8273 12.7305 24.7302 12.6658 24.6225 12.6658Z" fill="#9BE6FF"/>
<path d="M24.7999 17.1755H23.7333C23.5999 17.1755 23.4918 17.0674 23.4918 16.9341C23.4918 16.8007 23.5999 16.6926 23.7333 16.6926H24.7999C24.9333 16.6926 25.0414 16.8007 25.0414 16.9341C25.0414 17.0674 24.9333 17.1755 24.7999 17.1755Z" fill="#0068AE"/>
<path d="M27.4459 15.8177L25.8044 11.9266C25.7211 11.729 25.5275 11.6006 25.313 11.6006H24.5704C24.7849 11.6006 24.9785 11.729 25.0618 11.9266L26.7033 15.8177C26.7172 15.8505 26.7243 15.8857 26.7243 15.9213V19.8262H27.4669V18.5209L27.2094 18.0191L27.4669 17.4933V15.9213C27.4669 15.8857 27.4598 15.8505 27.4459 15.8177Z" fill="#FE9900"/>
<path d="M27.4665 18.5331H26.124C25.9818 18.5331 25.8665 18.4178 25.8665 18.2756V17.724C25.8665 17.5817 25.9818 17.4664 26.124 17.4664H27.4665V18.5331Z" fill="#9BE6FF"/>
<path d="M22.4 9.46631H21.6595C21.8068 9.46631 21.9262 9.58568 21.9262 9.73297V17.4665H22.6667V9.733C22.6667 9.58572 22.5473 9.46631 22.4 9.46631Z" fill="#E3DCDA"/>
<path d="M12.2667 20.6674C12.1194 20.6674 12 20.548 12 20.4007V19.8674C12 19.7201 12.1194 19.6007 12.2667 19.6007H27.0944V20.6674H12.2667Z" fill="#F3EDEA"/>
<path d="M20.8093 21.2008H18.1244C17.9821 21.2008 17.8668 21.0854 17.8668 20.9432V19.8583C17.8668 19.716 17.9821 19.6007 18.1244 19.6007H20.8093C20.9515 19.6007 21.0668 19.716 21.0668 19.8583V20.9432C21.0668 21.0855 20.9516 21.2008 20.8093 21.2008Z" fill="#FFC200"/>
<path d="M20.8093 19.6007H20.0688C20.2111 19.6007 20.3264 19.716 20.3264 19.8583V20.9432C20.3264 21.0854 20.2111 21.2008 20.0688 21.2008H20.8093C20.9515 21.2008 21.0668 21.0854 21.0668 20.9432V19.8583C21.0668 19.716 20.9516 19.6007 20.8093 19.6007Z" fill="#FE9900"/>
<path d="M27.1909 21.2008H27.7425C27.8847 21.2008 28 21.0854 28 20.9432V19.8583C28 19.716 27.8847 19.6007 27.7425 19.6007H26.9333V20.9432C26.9333 21.0855 27.0486 21.2008 27.1909 21.2008Z" fill="#D1CBC9"/>
<ellipse cx="23.7333" cy="20.4003" rx="1.60001" ry="1.60005" fill="#0068AE"/>
<ellipse cx="0.533635" cy="0.533622" rx="0.533635" ry="0.533622" transform="matrix(0.113939 -0.993488 0.993487 0.113944 23.1477 20.8593)" fill="#F3EDEA"/>
<path d="M23.7334 18.8003C23.6059 18.8003 23.482 18.8156 23.3632 18.8438C24.0682 19.0109 24.5929 19.6442 24.5929 20.4003C24.5929 21.1565 24.0682 21.7897 23.3632 21.9569C23.482 21.985 23.6059 22.0004 23.7334 22.0004C24.6171 22.0004 25.3334 21.284 25.3334 20.4003C25.3334 19.5167 24.617 18.8003 23.7334 18.8003Z" fill="#004A84"/>
<path d="M23.7333 19.8674C23.5893 19.8674 23.459 19.9247 23.363 20.0174C23.4634 20.1144 23.5262 20.2501 23.5262 20.4008C23.5262 20.5514 23.4635 20.6872 23.363 20.7842C23.459 20.8768 23.5893 20.9341 23.7333 20.9341C24.0278 20.9341 24.2666 20.6953 24.2666 20.4008C24.2666 20.1062 24.0278 19.8674 23.7333 19.8674Z" fill="#E3DCDA"/>
<ellipse cx="15.2" cy="20.4003" rx="1.60001" ry="1.60005" fill="#0068AE"/>
<ellipse cx="0.533383" cy="0.533371" rx="0.533383" ry="0.533371" transform="matrix(0.160989 -0.986956 0.986955 0.160996 14.5883 20.8353)" fill="#F3EDEA"/>
<path d="M15.2001 18.8003C15.0726 18.8003 14.9487 18.8156 14.8298 18.8438C15.5349 19.0109 16.0596 19.6442 16.0596 20.4003C16.0596 21.1565 15.5349 21.7897 14.8298 21.9569C14.9487 21.985 15.0726 22.0004 15.2001 22.0004C16.0837 22.0004 16.8001 21.284 16.8001 20.4003C16.8001 19.5167 16.0837 18.8003 15.2001 18.8003Z" fill="#004A84"/>
<path d="M15.1999 19.8674C15.056 19.8674 14.9256 19.9247 14.8297 20.0174C14.9301 20.1144 14.9928 20.2501 14.9928 20.4008C14.9928 20.5514 14.9302 20.6872 14.8297 20.7842C14.9256 20.8768 15.056 20.9341 15.1999 20.9341C15.4945 20.9341 15.7333 20.6953 15.7333 20.4008C15.7333 20.1062 15.4945 19.8674 15.1999 19.8674Z" fill="#E3DCDA"/>
<path d="M18.4001 8.66676C18.4001 7.14662 17.1283 5.92356 15.5906 6.00373C14.2307 6.07465 13.1339 7.17798 13.0698 8.53827C13.0443 9.07946 13.1809 9.5868 13.4342 10.0172L15.2716 13.2001C15.4768 13.5557 15.9901 13.5557 16.1954 13.2001L18.0327 10.0172C18.2658 9.62106 18.4001 9.15968 18.4001 8.66676Z" fill="#FF5B5B"/>
<ellipse cx="1.06656" cy="1.06654" rx="1.06656" ry="1.06654" transform="matrix(0.160015 -0.987115 0.987113 0.160022 14.509 9.54968)" fill="#F3EDEA"/>
<path d="M15.7333 7.6012C15.5981 7.6012 15.469 7.6266 15.35 7.67247C15.7496 7.82649 16.0333 8.21395 16.0333 8.66792C16.0333 9.12188 15.7496 9.50934 15.35 9.66336C15.469 9.70923 15.5982 9.73463 15.7333 9.73463C16.3224 9.73463 16.8 9.25707 16.8 8.66795C16.8 8.07883 16.3224 7.6012 15.7333 7.6012V7.6012Z" fill="#E3DCDA"/>
<path d="M15.5906 6.00373C15.5094 6.00798 15.4292 6.01612 15.35 6.02755C16.6412 6.21341 17.6334 7.3241 17.6334 8.66673C17.6334 9.15965 17.4992 9.62102 17.266 10.0172L15.4287 13.2C15.406 13.2393 15.3794 13.274 15.3501 13.3045C15.5865 13.5511 16.0127 13.5164 16.1953 13.2L18.0327 10.0172C18.2659 9.62102 18.4001 9.15968 18.4001 8.66673C18.4001 7.14662 17.1282 5.92356 15.5906 6.00373Z" fill="#E50048"/>
<path d="M26.7239 17.4662H27.4665V18.5329H26.7239V17.4662Z" fill="#55CBFC"/>
</svg>
