<svg width="245" height="200" viewBox="0 0 245 200" fill="none" xmlns="http://www.w3.org/2000/svg">
<path d="M108.069 59.9068C108.069 59.9068 89.1431 44.6668 70.223 46.7401C51.3029 48.8135 32.1868 75.3668 32.1868 75.3668L38.3118 80.4201C38.3118 80.4201 70.0576 51.7535 87.2505 72.9468C104.443 94.1401 108.069 59.9068 108.069 59.9068Z" fill="#51267D"/>
<path opacity="0.2" d="M108.069 59.9068C108.069 59.9068 89.1431 44.6668 70.223 46.7401C51.3029 48.8135 32.1868 75.3668 32.1868 75.3668L38.3118 80.4201C38.3118 80.4201 70.0576 51.7535 87.2505 72.9468C104.443 94.1401 108.069 59.9068 108.069 59.9068Z" fill="white"/>
<path d="M93.7738 57.78H28.7876V103.48H93.7738V57.78Z" fill="#F4C243"/>
<path opacity="0.45" d="M198.952 155.367C197.755 155.104 196.626 154.554 195.649 153.757C194.671 152.96 193.868 151.936 193.299 150.76V150.693L164.297 90.5801L148.335 102.88L159.624 141.507C159.921 142.522 159.988 143.601 159.82 144.651C159.651 145.701 159.252 146.691 158.655 147.537C158.059 148.383 157.284 149.059 156.395 149.507C155.507 149.956 154.532 150.164 153.554 150.113C144.979 149.687 135.859 149.447 126.383 149.447C77.4322 149.447 37.7483 155.653 37.7483 163.313C37.7483 170.973 77.4322 177.187 126.383 177.187C175.334 177.187 214.987 170.98 214.987 163.333C214.987 160.36 209.052 157.62 198.952 155.367Z" fill="#E6E6E6"/>
<path d="M106.722 158.787C106.722 158.787 107.628 162.12 110.317 162.513C113.006 162.907 113.57 165.847 111.101 166.447C108.633 167.047 102.526 163.28 102.526 163.28L102.912 159.047L106.722 158.787Z" fill="#51267D"/>
<path d="M54.3716 158.22C54.3716 158.22 51.2601 158.953 50.6966 161.84C50.1331 164.727 47.4014 165.113 47.0216 162.387C46.6419 159.66 50.5803 153.333 50.5803 153.333L54.4268 154.087L54.3716 158.22Z" fill="#51267D"/>
<path d="M54.7882 108.447C54.7882 108.447 51.9217 123.007 62.2423 129.247C72.5629 135.487 105.117 124.253 100.089 159.62H107.353C107.353 159.62 116.743 130.287 92.3834 119.86L84.9906 110.733L54.7882 108.447Z" fill="black"/>
<path d="M155.008 97.9371L152.537 95.3671L137.083 112.969L139.554 115.539L155.008 97.9371Z" fill="#F4C243"/>
<path opacity="0.08" d="M155.008 97.9371L152.537 95.3671L137.083 112.969L139.554 115.539L155.008 97.9371Z" fill="black"/>
<path d="M153.804 96.6771L151.333 94.1071L135.879 111.709L138.35 114.279L153.804 96.6771Z" fill="#F4C243"/>
<path d="M160.526 99.9158C164.499 95.3906 165.471 89.3838 162.698 86.4992C159.925 83.6145 154.456 84.9445 150.483 89.4697C146.51 93.9949 145.537 100.002 148.31 102.886C151.084 105.771 156.553 104.441 160.526 99.9158Z" fill="#F4C243"/>
<path opacity="0.08" d="M160.526 99.9158C164.499 95.3906 165.471 89.3838 162.698 86.4992C159.925 83.6145 154.456 84.9445 150.483 89.4697C146.51 93.9949 145.537 100.002 148.31 102.886C151.084 105.771 156.553 104.441 160.526 99.9158Z" fill="black"/>
<path d="M159.319 98.6659C163.292 94.1406 164.265 88.1338 161.491 85.2491C158.718 82.3645 153.249 83.6945 149.276 88.2197C145.303 92.7449 144.33 98.7518 147.104 101.636C149.877 104.521 155.346 103.191 159.319 98.6659Z" fill="#F4C243"/>
<path opacity="0.57" d="M157.614 96.8928C160.239 93.9035 160.881 89.9356 159.05 88.0303C157.218 86.1251 153.605 87.0038 150.981 89.9931C148.356 92.9824 147.713 96.9503 149.545 98.8556C151.377 100.761 154.99 99.8821 157.614 96.8928Z" fill="white"/>
<path d="M133.678 61.5531C133.678 61.5531 130.916 65.9198 128.233 68.0665C127.973 68.2728 127.678 68.4212 127.365 68.5034C127.052 68.5856 126.728 68.5998 126.41 68.5453C126.092 68.4909 125.787 68.3687 125.512 68.1859C125.237 68.003 124.999 67.7631 124.809 67.4798C123.835 65.9931 122.917 63.6731 124.136 61.1398L125.716 56.5598C126.125 55.6844 126.774 54.9685 127.572 54.5101C128.371 54.0518 129.28 53.8735 130.175 53.9998C133.525 54.2132 135.479 58.9865 133.678 61.5531Z" fill="#F4A28C"/>
<path d="M126.683 57.5L114.219 62.9667L115.75 72.62L124.736 64.64L126.683 57.5Z" fill="#F4A28C"/>
<path d="M132.619 60.8867C131.42 59.8929 130.331 58.752 129.372 57.4867C129.286 58.3437 128.971 59.1545 128.467 59.82C127.964 60.4855 127.293 60.9766 126.536 61.2333C125.808 61.4945 125.018 61.4718 124.303 61.1689C123.588 60.8661 122.991 60.302 122.616 59.5733L126.659 54.3733C127.211 53.6038 127.945 53.0115 128.782 52.6594C129.619 52.3072 130.528 52.2084 131.412 52.3733C132.176 52.5166 132.931 52.7125 133.672 52.96C135.51 53.6267 136.79 56.44 138.811 56.5333C139.014 56.5441 139.211 56.6122 139.383 56.7308C139.555 56.8494 139.696 57.0145 139.791 57.21C139.887 57.4055 139.935 57.6247 139.929 57.8462C139.924 58.0676 139.865 58.2837 139.76 58.4733C138.768 60.2667 136.6 62.5467 133.948 61.6333C133.47 61.4657 133.021 61.2134 132.619 60.8867Z" fill="black"/>
<path d="M127.032 61.4734C127.032 61.4734 128.196 59.8734 127.032 59.0134C125.869 58.1534 124.16 60.4601 125.477 62.0001L127.032 61.4734Z" fill="#F4A28C"/>
<path d="M131.81 64.2064L131.663 66.7198C131.651 66.8605 131.606 66.9956 131.534 67.113C131.462 67.2305 131.364 67.3265 131.249 67.3926C131.134 67.4587 131.006 67.4928 130.877 67.4917C130.747 67.4906 130.619 67.4544 130.505 67.3865L128.845 66.3864L131.81 64.2064Z" fill="#F4A28C"/>
<path opacity="0.31" d="M123.725 65.5268C123.725 65.5268 124.099 62.4934 125.103 61.3401C125.103 61.3401 120.565 63.0068 120.46 68.4401L123.725 65.5268Z" fill="#CE8172"/>
<path opacity="0.08" d="M41.4417 102.3C41.4417 102.3 41.2457 70.8531 75.9499 64.2064L55.5598 103.48H41.4723L41.4417 102.3Z" fill="black"/>
<path d="M117.404 75.9595L116.375 69.4462C115.973 66.7899 114.957 64.2882 113.424 62.1754C111.891 60.0626 109.891 58.4079 107.61 57.3662C105.625 56.5023 103.549 55.9089 101.43 55.5995C98.7105 55.1862 94.9007 55.5995 90.6377 56.8195C72.275 62.0662 58.8 78.9995 56.0131 99.4128L54.7881 108.446L84.9905 110.733C84.9905 110.733 83.4592 101.4 94.178 101.4C104.897 101.4 118.47 101.52 117.404 75.9595Z" fill="#51267D"/>
<path opacity="0.08" d="M87.808 65.8602C87.808 65.8602 73.1508 68.6669 57.0421 93.9335L54.7881 108.447L77.7078 110.3L87.808 65.8602Z" fill="black"/>
<path d="M104.615 77.48C107.475 67.0933 96.3829 58.6933 88.4756 65.2933C81.8606 70.8067 74.3881 80.7333 74.0941 97.4867C73.5857 127.72 100.193 122.313 136.202 110.733L135.056 101.927C135.056 101.927 91.9362 110.8 97.7917 95.5467C100.242 89.1667 103.096 83.0067 104.615 77.48Z" fill="#51267D"/>
<path opacity="0.2" d="M104.615 77.48C107.475 67.0933 96.3829 58.6933 88.4756 65.2933C81.8606 70.8067 74.3881 80.7333 74.0941 97.4867C73.5857 127.72 100.193 122.313 136.202 110.733L135.056 101.927C135.056 101.927 91.9362 110.8 97.7917 95.5467C100.242 89.1667 103.096 83.0067 104.615 77.48Z" fill="white"/>
<path d="M89.4801 119.933C89.4801 119.933 90.3683 153.367 54.4268 159.62L53.0364 152.533C53.0364 152.533 81.8239 144.767 63.2284 123.96L89.4801 119.933Z" fill="black"/>
<path opacity="0.08" d="M146.094 164.893C148.252 164.893 150.001 164.189 150.001 163.32C150.001 162.451 148.252 161.747 146.094 161.747C143.935 161.747 142.186 162.451 142.186 163.32C142.186 164.189 143.935 164.893 146.094 164.893Z" fill="black"/>
<path opacity="0.08" d="M161.038 160.82C163.197 160.82 164.946 160.116 164.946 159.247C164.946 158.378 163.197 157.673 161.038 157.673C158.88 157.673 157.131 158.378 157.131 159.247C157.131 160.116 158.88 160.82 161.038 160.82Z" fill="black"/>
<path opacity="0.08" d="M176.087 163.967C178.246 163.967 179.995 163.262 179.995 162.393C179.995 161.524 178.246 160.82 176.087 160.82C173.929 160.82 172.18 161.524 172.18 162.393C172.18 163.262 173.929 163.967 176.087 163.967Z" fill="black"/>
<path opacity="0.08" d="M199.13 165.547C201.288 165.547 203.038 164.842 203.038 163.973C203.038 163.105 201.288 162.4 199.13 162.4C196.972 162.4 195.222 163.105 195.222 163.973C195.222 164.842 196.972 165.547 199.13 165.547Z" fill="black"/>
<path opacity="0.08" d="M131.277 160.467C133.483 160.467 135.271 159.745 135.271 158.854C135.271 157.963 133.483 157.24 131.277 157.24C129.072 157.24 127.284 157.963 127.284 158.854C127.284 159.745 129.072 160.467 131.277 160.467Z" fill="black"/>
<path d="M135.277 103.62C135.277 103.62 145.187 102.48 146.057 106.693C146.926 110.907 145.028 113.14 136.11 110.027L135.277 103.62Z" fill="#F4A28C"/>
<path d="M36.5479 103.48C36.5479 103.48 37.975 109.773 43.6896 108.447C49.4042 107.12 45.325 99.4 36.5479 103.48Z" fill="#F4A28C"/>
</svg>
