<svg width="24" height="24" viewBox="0 0 24 24" fill="none" xmlns="http://www.w3.org/2000/svg">
<path fill-rule="evenodd" clip-rule="evenodd" d="M18.9492 3.73843L4.26921 9.87843C3.43921 10.2284 3.45921 11.4084 4.28921 11.7284L9.62921 13.7984C9.88921 13.8984 10.0992 14.1084 10.1992 14.3684L12.2592 19.6984C12.5792 20.5384 13.7692 20.5584 14.1192 19.7284L20.2692 5.05843C20.5992 4.22843 19.7692 3.39843 18.9492 3.73843Z" fill="#1E1E1E"/>
<mask id="mask0_2_3867" style="mask-type:luminance" maskUnits="userSpaceOnUse" x="3" y="3" width="18" height="18">
<path fill-rule="evenodd" clip-rule="evenodd" d="M18.9492 3.73843L4.26921 9.87843C3.43921 10.2284 3.45921 11.4084 4.28921 11.7284L9.62921 13.7984C9.88921 13.8984 10.0992 14.1084 10.1992 14.3684L12.2592 19.6984C12.5792 20.5384 13.7692 20.5584 14.1192 19.7284L20.2692 5.05843C20.5992 4.22843 19.7692 3.39843 18.9492 3.73843Z" fill="white"/>
</mask>
<g mask="url(#mask0_2_3867)">
<rect width="24" height="24" fill="#51267D"/>
</g>
</svg>
