<svg width="40" height="28" viewBox="0 0 40 28" fill="none" xmlns="http://www.w3.org/2000/svg">
<rect x="39.5" y="0.5" width="27" height="39" rx="5.5" transform="rotate(90 39.5 0.5)" fill="white" stroke="#EBEDF0"/>
<path d="M26.6655 17.8325C26.8892 18.1592 26.9118 18.6739 26.6741 19.0729C26.462 19.4292 25.1914 20.7966 24.778 21.2359C24.4196 21.6178 23.9358 21.9999 23.4595 21.9999H13.4908C12.1435 21.9999 12.0621 21.5345 12.0621 20.4819V16.2128C12.0621 15.1378 12.3734 14.8271 13.2935 14.8271H23.4596C23.9359 14.8271 24.3596 15.0749 24.8461 15.5791C25.2591 16.0072 26.4936 17.5811 26.6655 17.8325Z" fill="#33CCCC"/>
<path d="M14.3222 16.48C14.3222 16.4499 14.3222 16.4815 14.3222 16.4519C14.3222 16.3145 14.3109 16.179 14.0902 16.179H13.257C13.0634 16.179 13.0511 16.2882 13.0511 16.4576V17.5858C13.4568 16.995 13.9064 16.7204 14.3222 16.48Z" fill="white"/>
<path d="M19.9116 20.555V20.4945H19.9122V17.7789C19.9122 16.64 19.4208 16.0709 18.4381 16.0709C18.1565 16.0709 17.8989 16.1427 17.6653 16.2863C17.4314 16.43 17.2069 16.6308 16.9912 16.8884C16.8852 16.6084 16.7255 16.4023 16.5118 16.2698C16.2981 16.1372 16.0212 16.0711 15.6815 16.0711C15.288 16.0711 14.8306 16.2117 14.5064 16.4834C14.4339 16.5574 13.0513 17.6665 13.0513 18.8056C13.0513 19.4301 13.0513 20.0929 13.0513 20.0929C13.0513 20.0929 13.0513 20.5336 13.0513 20.5443C13.0513 20.5995 13.0251 20.8094 13.2558 20.8094H14.123C14.3926 20.8094 14.3662 20.6295 14.3662 20.5555C14.3662 20.5374 14.3662 20.0823 14.3662 20.0823V17.7431C14.5125 17.5452 14.8118 17.0564 15.2976 17.0564C15.484 17.0564 15.6184 17.1209 15.7004 17.2494C15.7828 17.3779 15.8241 17.5939 15.8241 17.8963V20.0925H15.8231C15.8231 20.0925 15.8231 20.5332 15.8231 20.5438C15.8231 20.5991 15.7969 20.8089 16.0276 20.8089H16.8839C17.1537 20.8089 17.1274 20.629 17.1274 20.555V20.4945H17.1284V17.7431C17.2852 17.5452 17.5978 17.0564 18.0596 17.0564C18.2497 17.0564 18.3867 17.1209 18.4708 17.2494C18.5546 17.3779 18.5966 17.5939 18.5966 17.8963V20.0925H18.5957C18.5957 20.0925 18.5957 20.5332 18.5957 20.5438C18.5957 20.5991 18.5696 20.8089 18.8003 20.8089H19.6677C19.938 20.8089 19.9116 20.629 19.9116 20.555Z" fill="white"/>
<path fill-rule="evenodd" clip-rule="evenodd" d="M22.7256 20.77C23.6408 20.77 24.3796 20.2976 24.6881 19.452C24.7088 19.3956 24.6563 19.2779 24.5383 19.2781H23.8137C23.8137 19.2781 23.6361 19.27 23.5493 19.4148C23.3498 19.7476 23.1208 19.9174 22.7344 19.9174C22.1006 19.9174 21.7418 19.508 21.725 18.7493H24.5383C24.7598 18.7493 24.8117 18.5897 24.805 18.4088C24.7522 16.9937 23.9218 16.1154 22.6842 16.1154C21.433 16.1154 20.5239 17.1043 20.5239 18.4685C20.5239 19.8494 21.3995 20.77 22.7256 20.77ZM21.7248 17.9812C21.7914 17.3671 22.1584 16.992 22.6841 16.992C23.2761 16.992 23.5598 17.444 23.6099 17.9812H21.7248Z" fill="white"/>
<path fill-rule="evenodd" clip-rule="evenodd" d="M17.1783 6.92753C17.058 6.73685 16.9163 6.58257 16.7526 6.46374C16.5889 6.34524 16.4045 6.25103 16.1993 6.18077C15.9944 6.11113 15.7695 6.06346 15.5249 6.03804C15.2804 6.01257 15.0173 6 14.7357 6H12.4261C12.2184 6 12.0008 6.13899 12.0008 6.40118V10.2175C12.2933 10.8535 12.8633 11.5288 13.5112 11.8515V11.0946C13.5112 10.6952 13.8064 10.6059 13.9285 10.6059H14.6113C15.5519 10.6059 16.2697 10.4046 16.7649 10.0021C17.2601 9.60011 17.5077 9.0027 17.5077 8.21071C17.5077 7.96942 17.4817 7.7429 17.4301 7.5311C17.378 7.31942 17.2942 7.11809 17.1783 6.92753ZM15.8328 8.88913C15.748 9.03519 15.634 9.14423 15.491 9.2163C15.348 9.28849 15.1833 9.33271 14.997 9.34975C14.8105 9.36667 14.6178 9.37523 14.4188 9.37523H13.7699C13.6111 9.37523 13.5114 9.24354 13.5114 9.04929V7.48903C13.5114 7.31409 13.6233 7.24066 13.7576 7.24066H14.4188C14.6343 7.24066 14.8362 7.24712 15.0249 7.25968C15.2135 7.27225 15.3771 7.31273 15.516 7.38056C15.6549 7.44838 15.7635 7.55204 15.8425 7.69183C15.921 7.83144 15.9605 8.02858 15.9605 8.2825C15.9601 8.54071 15.9178 8.74295 15.8328 8.88913ZM12.0006 11.1177C12.3208 11.4609 12.7985 11.8069 13.511 12.0972H13.511L13.5109 12.9601C13.5109 12.9601 13.545 13.2606 13.2686 13.2606H12.2611C11.9741 13.2606 12.0006 12.9601 12.0006 12.9601V11.1177ZM27.7896 8.00836H26.8854C26.7016 8.00836 26.5805 8.087 26.5075 8.29297C26.4343 8.49893 25.4762 11.2192 25.4762 11.2192C25.4762 11.2192 24.5594 8.5551 24.4873 8.34885C24.4155 8.1426 24.2966 8.00836 24.0831 8.00836H23.2524C22.9592 8.00836 22.9592 8.24292 22.9956 8.33611C23.0251 8.41129 24.1629 11.5895 24.5963 12.8001C24.6169 12.8578 24.635 12.9074 24.6508 12.9506L24.6508 12.9506L24.6508 12.9507L24.6508 12.9507C24.7132 13.1215 24.7395 13.1933 24.742 13.2778C24.7453 13.384 24.6395 13.606 24.5665 13.7336C24.5305 13.7965 24.4918 13.8498 24.4515 13.8984C25.3011 13.6393 26.2803 12.6985 26.7867 11.6795C27.2873 10.2594 27.9477 8.38338 27.9763 8.28736C28.0223 8.13229 28.0218 8.00836 27.7896 8.00836ZM23.5621 14.1494C23.6404 14.1599 23.7185 14.1648 23.7969 14.1666C24.9354 14.279 26.1109 13.1429 26.36 12.8865L26.2284 13.2601C26.1125 13.5735 25.9911 13.8605 25.865 14.1209C25.7385 14.3812 25.5946 14.6056 25.4331 14.794C25.2714 14.9824 25.0848 15.1296 24.8735 15.2354C24.6622 15.3413 24.4135 15.3944 24.1278 15.3944C23.8846 15.3944 23.6708 15.3732 23.4861 15.3311L23.4782 15.3294C23.4068 15.3135 23.2885 15.2871 23.2885 15.0254V14.3139C23.2885 14.1547 23.4669 14.1365 23.5621 14.1494ZM22.4389 8.85107C22.3851 8.72402 22.3187 8.61527 22.2403 8.52389C22.1613 8.43296 22.0683 8.35161 21.9604 8.27926C21.8444 8.20288 21.7265 8.14055 21.6063 8.09169C21.4861 8.04345 21.3566 8.00303 21.2178 7.9711C21.0791 7.93917 20.9267 7.91703 20.7612 7.90446C20.5953 7.89189 20.4088 7.88544 20.2016 7.88544C18.8317 7.88544 18.0519 8.32658 17.8616 9.20905C17.7997 9.48289 18.0656 9.49903 18.0656 9.49903H18.9083C19.0915 9.49903 19.1156 9.44898 19.1801 9.31513C19.1931 9.28822 19.2077 9.25794 19.2256 9.22399C19.2651 9.11223 19.3315 9.01984 19.4248 8.94629C19.5865 8.81925 19.8289 8.7559 20.152 8.7559C20.4628 8.7559 20.6887 8.81733 20.8295 8.94001C20.9705 9.06287 21.0533 9.24919 21.0781 9.49903C21.0781 9.78901 20.9894 9.98241 20.6454 9.98241C19.8068 9.95139 18.9058 10.0482 18.3982 10.3446C17.8904 10.6411 17.6036 11.2209 17.6036 11.8435C17.6036 12.0974 17.6481 12.3198 17.7373 12.5105C17.8262 12.7009 17.9505 12.8607 18.1103 12.99C18.2696 13.1192 18.4592 13.2156 18.6789 13.2791C18.8984 13.3426 19.1388 13.3745 19.3998 13.3745C19.7645 13.3745 20.0869 13.3276 20.3665 13.2346C20.6461 13.1415 21.0789 12.8346 21.134 12.7898V12.9534C21.134 13.1155 21.1824 13.26 21.3721 13.26L22.3521 13.2602C22.5505 13.2602 22.5945 13.1156 22.5945 12.9378V9.86149C22.5945 9.64562 22.5822 9.45482 22.5573 9.28984C22.5321 9.1243 22.4927 8.9784 22.4389 8.85107V8.85107ZM19.9468 12.4035C20.8499 12.4035 21.103 11.8678 21.103 11.8678C21.103 11.8678 21.103 11.3239 21.1029 11.2619C21.1029 11.0934 21.0032 10.8495 20.6243 10.8404C20.2453 10.8313 19.7395 10.9051 19.4869 11.0341C19.2341 11.1635 19.1076 11.3847 19.1076 11.6983C19.1076 11.9398 19.1854 12.1176 19.3408 12.232C19.4963 12.3464 19.6984 12.4035 19.9468 12.4035Z" fill="#333333"/>
</svg>
