<svg width="40" height="28" viewBox="0 0 40 28" fill="none" xmlns="http://www.w3.org/2000/svg">
<rect x="39.5" y="0.5" width="27" height="39" rx="5.5" transform="rotate(90 39.5 0.5)" fill="white" stroke="#EBEDF0"/>
<path d="M24.4999 14.2445V10.9483C24.4999 10.5868 24.7634 10.2789 25.1021 10.2661C25.4577 10.2526 25.7499 10.556 25.7499 10.9323H25.9008V13.0917L24.4999 14.2445Z" fill="#FFC5A3"/>
<path d="M26.3522 9.06714C26.0135 9.07999 25.75 9.38787 25.75 9.74939V12.8152V12.8154C25.5172 12.7674 25.2668 12.8651 25.116 13.0798L23.7 15.0937C23.5702 15.2784 23.5 15.5029 23.5 15.7338V18.4123L26 18.4282V17.0085C26 16.7663 26.0772 16.5313 26.2191 16.3421L26.7808 15.5931C26.9226 15.404 26.9999 15.169 26.9999 14.9268V9.73342C26.9999 9.35713 26.7077 9.05365 26.3522 9.06714Z" fill="#FFDCBD"/>
<path d="M26.352 9.06586C26.2325 9.0704 26.1227 9.11222 26.0302 9.17964C26.1963 9.29947 26.3056 9.50214 26.3056 9.73214V14.9255C26.3056 15.1677 26.2283 15.4027 26.0865 15.5918L25.5248 16.3409C25.3829 16.53 25.3057 16.765 25.3057 17.0072V18.4225L25.9998 18.4269V17.0072C25.9998 16.765 26.0771 16.53 26.2189 16.3409L26.7806 15.5918C26.9225 15.4027 26.9998 15.1677 26.9998 14.9255V9.73214C26.9998 9.35584 26.7075 9.05237 26.352 9.06586Z" fill="#FFC5A3"/>
<path d="M26.4902 13.0772C26.4531 12.8318 26.3272 12.6182 26.1355 12.476C26.0182 12.3889 25.8854 12.3389 25.7498 12.3236V12.812C25.7945 12.8235 25.8376 12.8432 25.8769 12.8723C25.9668 12.9391 26.0259 13.0391 26.0432 13.154C26.0606 13.269 26.0341 13.3837 25.9686 13.4769L24.7936 15.1481C24.7186 15.2547 24.7388 15.4061 24.8388 15.4861C24.9389 15.5661 25.0807 15.5445 25.1557 15.4378L26.3307 13.7666C26.4706 13.5677 26.5272 13.3228 26.4902 13.0772Z" fill="#FFC5A3"/>
<path d="M16.4998 14.2451V10.9489C16.4998 10.5874 16.2362 10.2795 15.8975 10.2667C15.542 10.2532 15.2498 10.5566 15.2498 10.9329H15.0989V13.0923L16.4998 14.2451Z" fill="#FFC5A3"/>
<path d="M14.6477 9.06745C14.9864 9.0803 15.25 9.38818 15.25 9.7497V12.8155V12.8157C15.4827 12.7677 15.7331 12.8654 15.884 13.0801L17.2999 15.094C17.4297 15.2787 17.4999 15.5033 17.4999 15.7341V18.4126L15 18.4285V17.0088C15 16.7666 14.9227 16.5316 14.7808 16.3425L14.2191 15.5934C14.0773 15.4043 14 15.1693 14 14.9271V9.73373C14 9.35743 14.2922 9.05396 14.6477 9.06745Z" fill="#FFDCBD"/>
<path d="M14.5096 13.0794C14.5467 12.834 14.6726 12.6204 14.8643 12.4782C14.9816 12.3911 15.1144 12.3411 15.25 12.3258V12.8142C15.2053 12.8257 15.1621 12.8454 15.1229 12.8745C15.033 12.9412 14.9739 13.0413 14.9566 13.1562C14.9392 13.2712 14.9657 13.3859 15.0312 13.4791L16.2062 15.1503C16.2812 15.2569 16.2609 15.4083 16.1609 15.4883C16.0609 15.5683 15.919 15.5467 15.844 15.44L14.6691 13.7688C14.5292 13.5699 14.4726 13.325 14.5096 13.0794Z" fill="#FFC5A3"/>
<path d="M26.5 19.4923H23V18.5222C23 18.38 23.1081 18.2646 23.2414 18.2646H26.2585C26.3919 18.2646 26.5 18.38 26.5 18.5222V19.4923Z" fill="#F3EDEA"/>
<path d="M26.2582 18.2646H25.5641C25.6974 18.2646 25.8055 18.38 25.8055 18.5222V19.4923H26.4997V18.5222C26.4997 18.38 26.3916 18.2646 26.2582 18.2646Z" fill="#E3DCDA"/>
<path d="M26.7585 21.9995H22.7414C22.6081 21.9995 22.5 21.8841 22.5 21.7419V19.5902C22.5 19.448 22.6081 19.3326 22.7414 19.3326H26.7585C26.8918 19.3326 26.9999 19.448 26.9999 19.5902V21.7419C26.9999 21.8841 26.8918 21.9995 26.7585 21.9995Z" fill="#0068AE"/>
<path d="M23.9995 20.6392H23.4995C23.3745 20.6392 23.2732 20.5311 23.2732 20.3977C23.2732 20.2643 23.3745 20.1562 23.4995 20.1562H23.9995C24.1246 20.1562 24.2259 20.2643 24.2259 20.3977C24.2259 20.5311 24.1246 20.6392 23.9995 20.6392Z" fill="#FFC200"/>
<path d="M26.7585 19.333H26.0643C26.1977 19.333 26.3058 19.4483 26.3058 19.5906V21.7423C26.3058 21.8845 26.1977 21.9998 26.0643 21.9998H26.7585C26.8918 21.9998 26.9999 21.8845 26.9999 21.7423V19.5906C26.9999 19.4483 26.8918 19.333 26.7585 19.333V19.333Z" fill="#004A84"/>
<path d="M18.0001 19.4928H14.5001V18.5226C14.5001 18.3804 14.6082 18.2651 14.7416 18.2651H17.7586C17.892 18.2651 18.0001 18.3804 18.0001 18.5226V19.4928H18.0001Z" fill="#F3EDEA"/>
<path d="M17.7584 18.2651H17.0642C17.1975 18.2651 17.3057 18.3804 17.3057 18.5226V19.4928H17.9998V18.5226C17.9998 18.3804 17.8917 18.2651 17.7584 18.2651Z" fill="#E3DCDA"/>
<path d="M18.2585 21.9999H14.2414C14.1081 21.9999 14 21.8846 14 21.7423V19.5906C14 19.4484 14.1081 19.3331 14.2414 19.3331H18.2585C18.3918 19.3331 18.4999 19.4484 18.4999 19.5906V21.7423C18.4999 21.8846 18.3918 21.9999 18.2585 21.9999Z" fill="#0068AE"/>
<path d="M17.5001 20.6396H17.0002C16.8751 20.6396 16.7738 20.5315 16.7738 20.3981C16.7738 20.2648 16.8751 20.1567 17.0002 20.1567H17.5001C17.6252 20.1567 17.7265 20.2648 17.7265 20.3981C17.7265 20.5315 17.6251 20.6396 17.5001 20.6396Z" fill="#FFC200"/>
<path d="M18.2585 19.3334H17.5643C17.6977 19.3334 17.8058 19.4488 17.8058 19.591V21.7427C17.8058 21.8849 17.6977 22.0003 17.5643 22.0003H18.2585C18.3918 22.0003 18.4999 21.8849 18.4999 21.7427V19.591C18.4999 19.4487 18.3918 19.3334 18.2585 19.3334V19.3334Z" fill="#004A84"/>
<path d="M18.7665 6.32232C18.5993 6.32232 18.4432 6.08948 18.3504 6.23787L17.5409 7.53327C17.5135 7.57709 17.4989 7.62854 17.4989 7.68121V11.6007C17.4989 11.748 17.6108 11.8674 17.7489 11.8674H23.2488C23.3868 11.8674 23.4988 11.748 23.4988 11.6007V7.68121C23.4988 7.62857 23.4841 7.57709 23.4568 7.53327L22.6472 6.23787C22.5545 6.08948 22.3984 6.32232 22.2312 6.32232H18.7665Z" fill="#FFC200"/>
<path d="M17.4989 8.41541H19.7489C19.8783 8.41541 19.9832 8.52735 19.9832 8.66543C19.9832 8.80352 19.8783 8.91546 19.7489 8.91546H17.4989V8.41541Z" fill="#FE9900"/>
<path d="M23.4986 8.91509H21.2487C21.1192 8.91509 21.0143 8.80315 21.0143 8.66507C21.0143 8.52698 21.1192 8.41504 21.2487 8.41504H23.4986V8.91509Z" fill="#FE9900"/>
<path d="M23.4565 7.53291L22.647 6.2375C22.5542 6.08912 22.3981 6 22.231 6H21.5122C21.6794 6 21.8355 6.08912 21.9282 6.2375L22.7378 7.53291C22.7652 7.57672 22.7798 7.62817 22.7798 7.68084V11.6003C22.7798 11.7476 22.6678 11.867 22.5298 11.867H23.2485C23.3866 11.867 23.4985 11.7476 23.4985 11.6003V7.68084C23.4985 7.6282 23.4839 7.57672 23.4565 7.53291Z" fill="#FE9900"/>
<path d="M23.4909 7.6001C23.4839 7.57647 23.474 7.55377 23.4609 7.53291L22.6513 6.2375C22.5586 6.08912 22.4025 6 22.2353 6H21.2525L20.554 6.32195L19.7661 6H18.7706C18.6034 6 18.4473 6.08912 18.3546 6.2375L17.545 7.53291C17.532 7.55377 17.522 7.57647 17.515 7.6001H23.4909Z" fill="#FFD900"/>
<path d="M21.9282 6.2375L22.7378 7.53291C22.7508 7.55377 22.7608 7.57647 22.7678 7.6001H23.4866C23.4866 7.60007 23.4866 7.60007 23.4866 7.60007C23.483 7.58828 23.4788 7.57672 23.4738 7.56555C23.4688 7.55432 23.4631 7.54337 23.4566 7.53294L22.647 6.2375C22.5542 6.08912 22.3981 6 22.231 6H21.5122C21.6794 6 21.8355 6.08912 21.9282 6.2375Z" fill="#FFC200"/>
<path d="M21.2486 6V9.46687C21.2486 9.61416 21.1367 9.73354 20.9986 9.73354H19.9986C19.8606 9.73354 19.7487 9.61413 19.7487 9.46687V6H21.2486Z" fill="#E3DCDA"/>
<path d="M20.5296 6V9.46687C20.5296 9.61416 20.4177 9.73354 20.2797 9.73354H20.9984C21.1365 9.73354 21.2484 9.61413 21.2484 9.46687V6H20.5296Z" fill="#DBCECA"/>
<path d="M19.7487 6H21.2486V7.6001H19.7487V6Z" fill="#F3EDEA"/>
<path d="M20.5298 6H21.2485V7.6001H20.5298V6Z" fill="#E3DCDA"/>
</svg>
